<mxfile host="app.diagrams.net" modified="2021-03-16T16:49:55.155Z" agent="5.0 (Windows NT 10.0; Win64; x64) AppleWebKit/537.36 (KHTML, like Gecko) Chrome/89.0.4389.82 Safari/537.36" etag="nuiarBYn0tMxQn_zkydR" version="14.4.8" type="github">
  <diagram id="W8FQsuZDM7uOI04a6WdN" name="Page-1">
    <mxGraphModel dx="1736" dy="1950" grid="1" gridSize="10" guides="1" tooltips="1" connect="1" arrows="1" fold="1" page="1" pageScale="1" pageWidth="850" pageHeight="1100" math="0" shadow="0">
      <root>
        <mxCell id="0" />
        <mxCell id="1" parent="0" />
        <mxCell id="7SjZiJHNHk-_QCqkNeD2-5" value="" style="endArrow=classic;html=1;strokeWidth=3;" parent="1" edge="1">
          <mxGeometry width="50" height="50" relative="1" as="geometry">
            <mxPoint x="391" y="-413.94" as="sourcePoint" />
            <mxPoint x="328" y="-413.44" as="targetPoint" />
          </mxGeometry>
        </mxCell>
        <mxCell id="7SjZiJHNHk-_QCqkNeD2-6" value="" style="endArrow=classic;html=1;strokeWidth=3;" parent="1" edge="1">
          <mxGeometry width="50" height="50" relative="1" as="geometry">
            <mxPoint x="508" y="-414.94" as="sourcePoint" />
            <mxPoint x="568" y="-413.94" as="targetPoint" />
          </mxGeometry>
        </mxCell>
        <mxCell id="7SjZiJHNHk-_QCqkNeD2-46" value="&lt;font style=&quot;font-size: 16px&quot;&gt;1D time series data&lt;/font&gt;" style="text;html=1;strokeColor=none;fillColor=none;align=center;verticalAlign=middle;whiteSpace=wrap;rounded=0;" parent="1" vertex="1">
          <mxGeometry x="242" y="-357.44" width="145" height="22" as="geometry" />
        </mxCell>
        <mxCell id="7SjZiJHNHk-_QCqkNeD2-65" value="" style="group" parent="1" vertex="1" connectable="0" treatAsSingle="0">
          <mxGeometry x="148" y="-648.44" width="230" height="39" as="geometry" />
        </mxCell>
        <mxCell id="7SjZiJHNHk-_QCqkNeD2-83" value="" style="group" parent="7SjZiJHNHk-_QCqkNeD2-65" vertex="1" connectable="0" treatAsSingle="0">
          <mxGeometry width="230" height="30" as="geometry" />
        </mxCell>
        <mxCell id="7SjZiJHNHk-_QCqkNeD2-66" value="" style="rounded=1;whiteSpace=wrap;html=1;fillColor=none;" parent="7SjZiJHNHk-_QCqkNeD2-83" vertex="1">
          <mxGeometry width="230" height="30" as="geometry" />
        </mxCell>
        <mxCell id="7SjZiJHNHk-_QCqkNeD2-67" value="" style="shape=image;html=1;verticalAlign=top;verticalLabelPosition=bottom;labelBackgroundColor=#ffffff;imageAspect=0;aspect=fixed;image=https://cdn4.iconfinder.com/data/icons/essential-app-2/16/record-round-circle-dot-128.png;fillColor=none;" parent="7SjZiJHNHk-_QCqkNeD2-83" vertex="1">
          <mxGeometry x="10" y="5.5" width="19" height="19" as="geometry" />
        </mxCell>
        <mxCell id="7SjZiJHNHk-_QCqkNeD2-68" value="" style="shape=image;html=1;verticalAlign=top;verticalLabelPosition=bottom;labelBackgroundColor=#ffffff;imageAspect=0;aspect=fixed;image=https://cdn4.iconfinder.com/data/icons/essential-app-2/16/record-round-circle-dot-128.png;fillColor=none;" parent="7SjZiJHNHk-_QCqkNeD2-83" vertex="1">
          <mxGeometry x="40" y="5.5" width="19" height="19" as="geometry" />
        </mxCell>
        <mxCell id="7SjZiJHNHk-_QCqkNeD2-69" value="" style="shape=image;html=1;verticalAlign=top;verticalLabelPosition=bottom;labelBackgroundColor=#ffffff;imageAspect=0;aspect=fixed;image=https://cdn4.iconfinder.com/data/icons/essential-app-2/16/record-round-circle-dot-128.png;fillColor=none;" parent="7SjZiJHNHk-_QCqkNeD2-83" vertex="1">
          <mxGeometry x="193" y="5.5" width="19" height="19" as="geometry" />
        </mxCell>
        <mxCell id="7SjZiJHNHk-_QCqkNeD2-81" value="" style="shape=image;html=1;verticalAlign=top;verticalLabelPosition=bottom;labelBackgroundColor=#ffffff;imageAspect=0;aspect=fixed;image=https://cdn4.iconfinder.com/data/icons/essential-app-2/16/record-round-circle-dot-128.png;fillColor=none;" parent="7SjZiJHNHk-_QCqkNeD2-83" vertex="1">
          <mxGeometry x="70" y="5.5" width="19" height="19" as="geometry" />
        </mxCell>
        <mxCell id="7SjZiJHNHk-_QCqkNeD2-82" value="" style="shape=image;html=1;verticalAlign=top;verticalLabelPosition=bottom;labelBackgroundColor=#ffffff;imageAspect=0;aspect=fixed;image=https://cdn4.iconfinder.com/data/icons/essential-app-1/16/dot-more-menu-hide-128.png;fillColor=none;" parent="7SjZiJHNHk-_QCqkNeD2-83" vertex="1">
          <mxGeometry x="100" y="1" width="29" height="29" as="geometry" />
        </mxCell>
        <mxCell id="7SjZiJHNHk-_QCqkNeD2-76" value="" style="shape=image;html=1;verticalAlign=top;verticalLabelPosition=bottom;labelBackgroundColor=#ffffff;imageAspect=0;aspect=fixed;image=https://cdn1.iconfinder.com/data/icons/jumpicon-basic-ui-glyph-1/32/-_Dot-More-Vertical-Menu-128.png;fillColor=none;" parent="1" vertex="1">
          <mxGeometry x="235.5" y="-698.44" width="50" height="50" as="geometry" />
        </mxCell>
        <mxCell id="7SjZiJHNHk-_QCqkNeD2-77" value="GRU&lt;span style=&quot;font-size: 10px&quot;&gt;n&lt;/span&gt;" style="text;html=1;strokeColor=none;fillColor=none;align=center;verticalAlign=middle;whiteSpace=wrap;rounded=0;" parent="1" vertex="1">
          <mxGeometry x="148" y="-748.44" width="40" height="20" as="geometry" />
        </mxCell>
        <mxCell id="7SjZiJHNHk-_QCqkNeD2-78" value="GRU&lt;sub&gt;1&lt;/sub&gt;" style="text;html=1;strokeColor=none;fillColor=none;align=center;verticalAlign=middle;whiteSpace=wrap;rounded=0;" parent="1" vertex="1">
          <mxGeometry x="145" y="-546.44" width="40" height="20" as="geometry" />
        </mxCell>
        <mxCell id="7SjZiJHNHk-_QCqkNeD2-79" value="GRU&lt;span style=&quot;font-size: 10px&quot;&gt;2&lt;/span&gt;" style="text;html=1;strokeColor=none;fillColor=none;align=center;verticalAlign=middle;whiteSpace=wrap;rounded=0;" parent="1" vertex="1">
          <mxGeometry x="145" y="-608.44" width="40" height="20" as="geometry" />
        </mxCell>
        <mxCell id="7SjZiJHNHk-_QCqkNeD2-80" value="&lt;font style=&quot;font-size: 16px&quot; color=&quot;#000066&quot;&gt;&lt;b&gt;GRU module&lt;/b&gt;&lt;/font&gt;" style="text;html=1;strokeColor=none;fillColor=none;align=center;verticalAlign=middle;whiteSpace=wrap;rounded=0;rotation=-90;" parent="1" vertex="1">
          <mxGeometry x="70" y="-648.44" width="111" height="20" as="geometry" />
        </mxCell>
        <mxCell id="7SjZiJHNHk-_QCqkNeD2-102" value="" style="group" parent="1" vertex="1" connectable="0" treatAsSingle="0">
          <mxGeometry x="146.5" y="-528.44" width="230" height="39" as="geometry" />
        </mxCell>
        <mxCell id="7SjZiJHNHk-_QCqkNeD2-103" value="" style="group" parent="7SjZiJHNHk-_QCqkNeD2-102" vertex="1" connectable="0" treatAsSingle="0">
          <mxGeometry width="230" height="30" as="geometry" />
        </mxCell>
        <mxCell id="7SjZiJHNHk-_QCqkNeD2-104" value="" style="rounded=1;whiteSpace=wrap;html=1;fillColor=none;" parent="7SjZiJHNHk-_QCqkNeD2-103" vertex="1">
          <mxGeometry width="230" height="30" as="geometry" />
        </mxCell>
        <mxCell id="7SjZiJHNHk-_QCqkNeD2-105" value="" style="shape=image;html=1;verticalAlign=top;verticalLabelPosition=bottom;labelBackgroundColor=#ffffff;imageAspect=0;aspect=fixed;image=https://cdn4.iconfinder.com/data/icons/essential-app-2/16/record-round-circle-dot-128.png;fillColor=none;" parent="7SjZiJHNHk-_QCqkNeD2-103" vertex="1">
          <mxGeometry x="10" y="5.5" width="19" height="19" as="geometry" />
        </mxCell>
        <mxCell id="7SjZiJHNHk-_QCqkNeD2-106" value="" style="shape=image;html=1;verticalAlign=top;verticalLabelPosition=bottom;labelBackgroundColor=#ffffff;imageAspect=0;aspect=fixed;image=https://cdn4.iconfinder.com/data/icons/essential-app-2/16/record-round-circle-dot-128.png;fillColor=none;" parent="7SjZiJHNHk-_QCqkNeD2-103" vertex="1">
          <mxGeometry x="40" y="5.5" width="19" height="19" as="geometry" />
        </mxCell>
        <mxCell id="7SjZiJHNHk-_QCqkNeD2-107" value="" style="shape=image;html=1;verticalAlign=top;verticalLabelPosition=bottom;labelBackgroundColor=#ffffff;imageAspect=0;aspect=fixed;image=https://cdn4.iconfinder.com/data/icons/essential-app-2/16/record-round-circle-dot-128.png;fillColor=none;" parent="7SjZiJHNHk-_QCqkNeD2-103" vertex="1">
          <mxGeometry x="193" y="5.5" width="19" height="19" as="geometry" />
        </mxCell>
        <mxCell id="7SjZiJHNHk-_QCqkNeD2-108" value="" style="shape=image;html=1;verticalAlign=top;verticalLabelPosition=bottom;labelBackgroundColor=#ffffff;imageAspect=0;aspect=fixed;image=https://cdn4.iconfinder.com/data/icons/essential-app-2/16/record-round-circle-dot-128.png;fillColor=none;" parent="7SjZiJHNHk-_QCqkNeD2-103" vertex="1">
          <mxGeometry x="70" y="5.5" width="19" height="19" as="geometry" />
        </mxCell>
        <mxCell id="7SjZiJHNHk-_QCqkNeD2-109" value="" style="shape=image;html=1;verticalAlign=top;verticalLabelPosition=bottom;labelBackgroundColor=#ffffff;imageAspect=0;aspect=fixed;image=https://cdn4.iconfinder.com/data/icons/essential-app-1/16/dot-more-menu-hide-128.png;fillColor=none;" parent="7SjZiJHNHk-_QCqkNeD2-103" vertex="1">
          <mxGeometry x="100" y="1" width="29" height="29" as="geometry" />
        </mxCell>
        <mxCell id="7SjZiJHNHk-_QCqkNeD2-110" value="" style="group" parent="1" vertex="1" connectable="0" treatAsSingle="0">
          <mxGeometry x="147.5" y="-728.44" width="230" height="39" as="geometry" />
        </mxCell>
        <mxCell id="7SjZiJHNHk-_QCqkNeD2-111" value="" style="group" parent="7SjZiJHNHk-_QCqkNeD2-110" vertex="1" connectable="0" treatAsSingle="0">
          <mxGeometry width="230" height="30" as="geometry" />
        </mxCell>
        <mxCell id="7SjZiJHNHk-_QCqkNeD2-112" value="" style="rounded=1;whiteSpace=wrap;html=1;fillColor=none;" parent="7SjZiJHNHk-_QCqkNeD2-111" vertex="1">
          <mxGeometry width="230" height="30" as="geometry" />
        </mxCell>
        <mxCell id="7SjZiJHNHk-_QCqkNeD2-113" value="" style="shape=image;html=1;verticalAlign=top;verticalLabelPosition=bottom;labelBackgroundColor=#ffffff;imageAspect=0;aspect=fixed;image=https://cdn4.iconfinder.com/data/icons/essential-app-2/16/record-round-circle-dot-128.png;fillColor=none;" parent="7SjZiJHNHk-_QCqkNeD2-111" vertex="1">
          <mxGeometry x="10" y="5.5" width="19" height="19" as="geometry" />
        </mxCell>
        <mxCell id="7SjZiJHNHk-_QCqkNeD2-114" value="" style="shape=image;html=1;verticalAlign=top;verticalLabelPosition=bottom;labelBackgroundColor=#ffffff;imageAspect=0;aspect=fixed;image=https://cdn4.iconfinder.com/data/icons/essential-app-2/16/record-round-circle-dot-128.png;fillColor=none;" parent="7SjZiJHNHk-_QCqkNeD2-111" vertex="1">
          <mxGeometry x="40" y="5.5" width="19" height="19" as="geometry" />
        </mxCell>
        <mxCell id="7SjZiJHNHk-_QCqkNeD2-115" value="" style="shape=image;html=1;verticalAlign=top;verticalLabelPosition=bottom;labelBackgroundColor=#ffffff;imageAspect=0;aspect=fixed;image=https://cdn4.iconfinder.com/data/icons/essential-app-2/16/record-round-circle-dot-128.png;fillColor=none;" parent="7SjZiJHNHk-_QCqkNeD2-111" vertex="1">
          <mxGeometry x="193" y="5.5" width="19" height="19" as="geometry" />
        </mxCell>
        <mxCell id="7SjZiJHNHk-_QCqkNeD2-116" value="" style="shape=image;html=1;verticalAlign=top;verticalLabelPosition=bottom;labelBackgroundColor=#ffffff;imageAspect=0;aspect=fixed;image=https://cdn4.iconfinder.com/data/icons/essential-app-2/16/record-round-circle-dot-128.png;fillColor=none;" parent="7SjZiJHNHk-_QCqkNeD2-111" vertex="1">
          <mxGeometry x="70" y="5.5" width="19" height="19" as="geometry" />
        </mxCell>
        <mxCell id="7SjZiJHNHk-_QCqkNeD2-117" value="" style="shape=image;html=1;verticalAlign=top;verticalLabelPosition=bottom;labelBackgroundColor=#ffffff;imageAspect=0;aspect=fixed;image=https://cdn4.iconfinder.com/data/icons/essential-app-1/16/dot-more-menu-hide-128.png;fillColor=none;" parent="7SjZiJHNHk-_QCqkNeD2-111" vertex="1">
          <mxGeometry x="100" y="1" width="29" height="29" as="geometry" />
        </mxCell>
        <mxCell id="7SjZiJHNHk-_QCqkNeD2-87" value="" style="rounded=1;whiteSpace=wrap;html=1;fillColor=none;" parent="1" vertex="1">
          <mxGeometry x="147.5" y="-588.44" width="230" height="30" as="geometry" />
        </mxCell>
        <mxCell id="7SjZiJHNHk-_QCqkNeD2-88" value="" style="shape=image;html=1;verticalAlign=top;verticalLabelPosition=bottom;labelBackgroundColor=#ffffff;imageAspect=0;aspect=fixed;image=https://cdn4.iconfinder.com/data/icons/essential-app-2/16/record-round-circle-dot-128.png;fillColor=none;" parent="1" vertex="1">
          <mxGeometry x="157.5" y="-582.94" width="19" height="19" as="geometry" />
        </mxCell>
        <mxCell id="7SjZiJHNHk-_QCqkNeD2-89" value="" style="shape=image;html=1;verticalAlign=top;verticalLabelPosition=bottom;labelBackgroundColor=#ffffff;imageAspect=0;aspect=fixed;image=https://cdn4.iconfinder.com/data/icons/essential-app-2/16/record-round-circle-dot-128.png;fillColor=none;" parent="1" vertex="1">
          <mxGeometry x="187.5" y="-582.94" width="19" height="19" as="geometry" />
        </mxCell>
        <mxCell id="7SjZiJHNHk-_QCqkNeD2-90" value="" style="shape=image;html=1;verticalAlign=top;verticalLabelPosition=bottom;labelBackgroundColor=#ffffff;imageAspect=0;aspect=fixed;image=https://cdn4.iconfinder.com/data/icons/essential-app-2/16/record-round-circle-dot-128.png;fillColor=none;" parent="1" vertex="1">
          <mxGeometry x="340.5" y="-582.94" width="19" height="19" as="geometry" />
        </mxCell>
        <mxCell id="7SjZiJHNHk-_QCqkNeD2-91" value="" style="shape=image;html=1;verticalAlign=top;verticalLabelPosition=bottom;labelBackgroundColor=#ffffff;imageAspect=0;aspect=fixed;image=https://cdn4.iconfinder.com/data/icons/essential-app-2/16/record-round-circle-dot-128.png;fillColor=none;" parent="1" vertex="1">
          <mxGeometry x="217.5" y="-582.94" width="19" height="19" as="geometry" />
        </mxCell>
        <mxCell id="7SjZiJHNHk-_QCqkNeD2-92" value="" style="shape=image;html=1;verticalAlign=top;verticalLabelPosition=bottom;labelBackgroundColor=#ffffff;imageAspect=0;aspect=fixed;image=https://cdn4.iconfinder.com/data/icons/essential-app-1/16/dot-more-menu-hide-128.png;fillColor=none;" parent="1" vertex="1">
          <mxGeometry x="247.5" y="-587.44" width="29" height="29" as="geometry" />
        </mxCell>
        <mxCell id="7SjZiJHNHk-_QCqkNeD2-48" value="" style="verticalLabelPosition=bottom;verticalAlign=top;html=1;shape=mxgraph.basic.rect;fillColor2=none;strokeWidth=2;size=20;indent=5;fillColor=none;" parent="1" vertex="1">
          <mxGeometry x="137" y="-748.44" width="250" height="262" as="geometry" />
        </mxCell>
        <mxCell id="7SjZiJHNHk-_QCqkNeD2-118" value="" style="endArrow=classic;html=1;strokeWidth=3;" parent="1" edge="1">
          <mxGeometry x="147.5" y="-588.44" width="50" height="50" as="geometry">
            <mxPoint x="258" y="-588.44" as="sourcePoint" />
            <mxPoint x="258" y="-618.44" as="targetPoint" />
          </mxGeometry>
        </mxCell>
        <mxCell id="7SjZiJHNHk-_QCqkNeD2-119" value="" style="endArrow=classic;html=1;strokeWidth=3;" parent="1" edge="1">
          <mxGeometry x="-32" y="-758.44" width="50" height="50" as="geometry">
            <mxPoint x="258" y="-528.44" as="sourcePoint" />
            <mxPoint x="258" y="-558.44" as="targetPoint" />
          </mxGeometry>
        </mxCell>
        <mxCell id="7SjZiJHNHk-_QCqkNeD2-14" value="&lt;font style=&quot;font-size: 16px&quot;&gt;x&lt;sub&gt;1&lt;/sub&gt;&lt;/font&gt;" style="text;html=1;strokeColor=none;fillColor=none;align=center;verticalAlign=middle;whiteSpace=wrap;rounded=0;" parent="1" vertex="1">
          <mxGeometry x="138" y="-448.44" width="40" height="20" as="geometry" />
        </mxCell>
        <mxCell id="7SjZiJHNHk-_QCqkNeD2-15" value="&lt;font style=&quot;font-size: 16px&quot;&gt;x&lt;/font&gt;&lt;sub&gt;&lt;font style=&quot;font-size: 13px&quot;&gt;2&lt;/font&gt;&lt;/sub&gt;" style="text;html=1;strokeColor=none;fillColor=none;align=center;verticalAlign=middle;whiteSpace=wrap;rounded=0;" parent="1" vertex="1">
          <mxGeometry x="287" y="-448.44" width="40" height="20" as="geometry" />
        </mxCell>
        <mxCell id="7SjZiJHNHk-_QCqkNeD2-8" value="" style="rounded=0;whiteSpace=wrap;html=1;" parent="1" vertex="1">
          <mxGeometry x="288" y="-428.44" width="40" height="30" as="geometry" />
        </mxCell>
        <mxCell id="7SjZiJHNHk-_QCqkNeD2-9" value="" style="rounded=0;whiteSpace=wrap;html=1;" parent="1" vertex="1">
          <mxGeometry x="248" y="-428.44" width="40" height="30" as="geometry" />
        </mxCell>
        <mxCell id="7SjZiJHNHk-_QCqkNeD2-10" value="" style="rounded=0;whiteSpace=wrap;html=1;" parent="1" vertex="1">
          <mxGeometry x="174" y="-428.44" width="40" height="30" as="geometry" />
        </mxCell>
        <mxCell id="7SjZiJHNHk-_QCqkNeD2-11" value="" style="rounded=0;whiteSpace=wrap;html=1;" parent="1" vertex="1">
          <mxGeometry x="134" y="-428.44" width="40" height="30" as="geometry" />
        </mxCell>
        <mxCell id="7SjZiJHNHk-_QCqkNeD2-12" value="" style="shape=image;html=1;verticalAlign=top;verticalLabelPosition=bottom;labelBackgroundColor=#ffffff;imageAspect=0;aspect=fixed;image=https://cdn4.iconfinder.com/data/icons/essential-app-1/16/dot-more-menu-hide-128.png" parent="1" vertex="1">
          <mxGeometry x="218" y="-426.44" width="26" height="26" as="geometry" />
        </mxCell>
        <mxCell id="7SjZiJHNHk-_QCqkNeD2-120" value="" style="endArrow=classic;html=1;strokeWidth=2;dashed=1;dashPattern=1 1;entryX=0.224;entryY=0.989;entryDx=0;entryDy=0;entryPerimeter=0;" parent="1" edge="1">
          <mxGeometry x="128" y="-448.44" width="50" height="50" as="geometry">
            <mxPoint x="167" y="-428.44" as="sourcePoint" />
            <mxPoint x="192" y="-484.32200000000006" as="targetPoint" />
          </mxGeometry>
        </mxCell>
        <mxCell id="7SjZiJHNHk-_QCqkNeD2-121" value="" style="endArrow=classic;html=1;strokeWidth=2;dashed=1;dashPattern=1 1;entryX=0.224;entryY=0.989;entryDx=0;entryDy=0;entryPerimeter=0;" parent="1" edge="1">
          <mxGeometry x="128" y="-448.44" width="50" height="50" as="geometry">
            <mxPoint x="204" y="-428.56" as="sourcePoint" />
            <mxPoint x="229" y="-484.44200000000006" as="targetPoint" />
          </mxGeometry>
        </mxCell>
        <mxCell id="7SjZiJHNHk-_QCqkNeD2-123" value="" style="endArrow=classic;html=1;strokeWidth=2;dashed=1;dashPattern=1 1;entryX=0.224;entryY=0.989;entryDx=0;entryDy=0;entryPerimeter=0;" parent="1" edge="1">
          <mxGeometry x="64" y="-820.56" width="50" height="50" as="geometry">
            <mxPoint x="263" y="-430.56" as="sourcePoint" />
            <mxPoint x="288" y="-486.44200000000006" as="targetPoint" />
          </mxGeometry>
        </mxCell>
        <mxCell id="7SjZiJHNHk-_QCqkNeD2-124" value="" style="endArrow=classic;html=1;strokeWidth=2;dashed=1;dashPattern=1 1;entryX=0.224;entryY=0.989;entryDx=0;entryDy=0;entryPerimeter=0;" parent="1" edge="1">
          <mxGeometry x="-43.5" y="-1190.56" width="50" height="50" as="geometry">
            <mxPoint x="315.5" y="-430.56" as="sourcePoint" />
            <mxPoint x="340.5" y="-486.44200000000006" as="targetPoint" />
          </mxGeometry>
        </mxCell>
        <mxCell id="7SjZiJHNHk-_QCqkNeD2-126" value="" style="endArrow=classic;html=1;strokeWidth=2;dashed=1;dashPattern=1 1;entryX=0.224;entryY=0.989;entryDx=0;entryDy=0;entryPerimeter=0;" parent="1" edge="1">
          <mxGeometry x="-14.5" y="-818.44" width="50" height="50" as="geometry">
            <mxPoint x="184.5" y="-428.4399999999999" as="sourcePoint" />
            <mxPoint x="209.5" y="-484.32199999999995" as="targetPoint" />
          </mxGeometry>
        </mxCell>
        <mxCell id="7SjZiJHNHk-_QCqkNeD2-127" value="" style="endArrow=classic;html=1;strokeWidth=2;dashed=1;dashPattern=1 1;entryX=0.224;entryY=0.989;entryDx=0;entryDy=0;entryPerimeter=0;" parent="1" edge="1">
          <mxGeometry x="88.5" y="-818.44" width="50" height="50" as="geometry">
            <mxPoint x="287.5" y="-428.4399999999999" as="sourcePoint" />
            <mxPoint x="312.5" y="-484.32199999999995" as="targetPoint" />
          </mxGeometry>
        </mxCell>
        <mxCell id="7SjZiJHNHk-_QCqkNeD2-128" value="" style="endArrow=classic;html=1;strokeWidth=2;dashed=1;dashPattern=1 1;entryX=0.5;entryY=1;entryDx=0;entryDy=0;" parent="1" target="7SjZiJHNHk-_QCqkNeD2-151" edge="1">
          <mxGeometry x="269" y="-902.56" width="50" height="50" as="geometry">
            <mxPoint x="598" y="-469.44" as="sourcePoint" />
            <mxPoint x="488" y="-538.44" as="targetPoint" />
            <Array as="points">
              <mxPoint x="488" y="-478.44" />
            </Array>
          </mxGeometry>
        </mxCell>
        <mxCell id="7SjZiJHNHk-_QCqkNeD2-130" value="" style="endArrow=classic;html=1;strokeWidth=2;dashed=1;dashPattern=1 1;entryX=0.5;entryY=1;entryDx=0;entryDy=0;" parent="1" edge="1">
          <mxGeometry x="404.5" y="-852.56" width="50" height="50" as="geometry">
            <mxPoint x="603.5" y="-468.44" as="sourcePoint" />
            <mxPoint x="603.5" y="-498.44000000000005" as="targetPoint" />
          </mxGeometry>
        </mxCell>
        <mxCell id="7SjZiJHNHk-_QCqkNeD2-131" value="" style="endArrow=classic;html=1;strokeWidth=2;dashed=1;dashPattern=1 1;entryX=0.627;entryY=1.067;entryDx=0;entryDy=0;entryPerimeter=0;exitX=0.5;exitY=0;exitDx=0;exitDy=0;" parent="1" source="7SjZiJHNHk-_QCqkNeD2-158" target="7SjZiJHNHk-_QCqkNeD2-164" edge="1">
          <mxGeometry x="419" y="-982.56" width="50" height="50" as="geometry">
            <mxPoint x="618" y="-592.56" as="sourcePoint" />
            <mxPoint x="643" y="-648.442" as="targetPoint" />
          </mxGeometry>
        </mxCell>
        <mxCell id="7SjZiJHNHk-_QCqkNeD2-132" value="" style="endArrow=classic;html=1;strokeWidth=2;dashed=1;dashPattern=1 1;" parent="1" edge="1">
          <mxGeometry x="349" y="-982.56" width="50" height="50" as="geometry">
            <mxPoint x="548" y="-592.56" as="sourcePoint" />
            <mxPoint x="603" y="-637.44" as="targetPoint" />
          </mxGeometry>
        </mxCell>
        <mxCell id="7SjZiJHNHk-_QCqkNeD2-133" value="" style="endArrow=classic;html=1;strokeWidth=2;dashed=1;dashPattern=1 1;entryX=0.118;entryY=1.1;entryDx=0;entryDy=0;exitX=0.5;exitY=0;exitDx=0;exitDy=0;entryPerimeter=0;" parent="1" source="7SjZiJHNHk-_QCqkNeD2-151" target="7SjZiJHNHk-_QCqkNeD2-164" edge="1">
          <mxGeometry x="252.75" y="-948.44" width="50" height="50" as="geometry">
            <mxPoint x="451.75" y="-558.4399999999998" as="sourcePoint" />
            <mxPoint x="584.25" y="-626.38" as="targetPoint" />
            <Array as="points">
              <mxPoint x="466.75" y="-606.38" />
              <mxPoint x="558" y="-618.44" />
            </Array>
          </mxGeometry>
        </mxCell>
        <mxCell id="7SjZiJHNHk-_QCqkNeD2-134" value="" style="endArrow=classic;html=1;strokeWidth=2;dashed=1;dashPattern=1 1;entryX=0.75;entryY=1;entryDx=0;entryDy=0;" parent="1" target="7SjZiJHNHk-_QCqkNeD2-164" edge="1">
          <mxGeometry x="489" y="-991" width="50" height="50" as="geometry">
            <mxPoint x="688" y="-600.9999999999999" as="sourcePoint" />
            <mxPoint x="713" y="-656.882" as="targetPoint" />
          </mxGeometry>
        </mxCell>
        <mxCell id="7SjZiJHNHk-_QCqkNeD2-140" value="" style="group;fillColor=#0050ef;strokeColor=#001DBC;fontColor=#ffffff;" parent="1" vertex="1" connectable="0" treatAsSingle="0">
          <mxGeometry x="568" y="-528.44" width="60" height="30" as="geometry" />
        </mxCell>
        <mxCell id="7SjZiJHNHk-_QCqkNeD2-137" value="" style="rounded=0;whiteSpace=wrap;html=1;fillColor=#0050ef;strokeColor=#001DBC;fontColor=#ffffff;" parent="7SjZiJHNHk-_QCqkNeD2-140" vertex="1">
          <mxGeometry y="0.75" width="60" height="26.625" as="geometry" />
        </mxCell>
        <mxCell id="7SjZiJHNHk-_QCqkNeD2-138" value="Con (1*1)" style="text;html=1;strokeColor=#001DBC;fillColor=#0050ef;align=center;verticalAlign=middle;whiteSpace=wrap;rounded=0;fontColor=#ffffff;" parent="7SjZiJHNHk-_QCqkNeD2-140" vertex="1">
          <mxGeometry width="60" height="30" as="geometry" />
        </mxCell>
        <mxCell id="7SjZiJHNHk-_QCqkNeD2-141" value="" style="group;fillColor=#d80073;strokeColor=#A50040;fontColor=#ffffff;" parent="1" vertex="1" connectable="0" treatAsSingle="0">
          <mxGeometry x="644" y="-528.44" width="70" height="30" as="geometry" />
        </mxCell>
        <mxCell id="7SjZiJHNHk-_QCqkNeD2-142" value="" style="rounded=0;whiteSpace=wrap;html=1;fillColor=#d80073;strokeColor=#A50040;fontColor=#ffffff;" parent="7SjZiJHNHk-_QCqkNeD2-141" vertex="1">
          <mxGeometry y="0.75" width="60" height="26.625" as="geometry" />
        </mxCell>
        <mxCell id="7SjZiJHNHk-_QCqkNeD2-143" value="MaxPool (3*3)" style="text;html=1;strokeColor=#A50040;fillColor=#d80073;align=center;verticalAlign=middle;whiteSpace=wrap;rounded=0;fontColor=#ffffff;" parent="7SjZiJHNHk-_QCqkNeD2-141" vertex="1">
          <mxGeometry width="70" height="30" as="geometry" />
        </mxCell>
        <mxCell id="7SjZiJHNHk-_QCqkNeD2-146" value="" style="group;fillColor=#0050ef;strokeColor=#001DBC;fontColor=#ffffff;" parent="1" vertex="1" connectable="0" treatAsSingle="0">
          <mxGeometry x="488" y="-528.44" width="60" height="30" as="geometry" />
        </mxCell>
        <mxCell id="7SjZiJHNHk-_QCqkNeD2-147" value="" style="rounded=0;whiteSpace=wrap;html=1;fillColor=#0050ef;strokeColor=#001DBC;fontColor=#ffffff;" parent="7SjZiJHNHk-_QCqkNeD2-146" vertex="1">
          <mxGeometry y="0.75" width="60" height="26.625" as="geometry" />
        </mxCell>
        <mxCell id="7SjZiJHNHk-_QCqkNeD2-148" value="Con (1*1)" style="text;html=1;strokeColor=#001DBC;fillColor=#0050ef;align=center;verticalAlign=middle;whiteSpace=wrap;rounded=0;fontColor=#ffffff;" parent="7SjZiJHNHk-_QCqkNeD2-146" vertex="1">
          <mxGeometry width="60" height="30" as="geometry" />
        </mxCell>
        <mxCell id="7SjZiJHNHk-_QCqkNeD2-149" value="" style="group;fillColor=#0050ef;strokeColor=#001DBC;fontColor=#ffffff;" parent="1" vertex="1" connectable="0" treatAsSingle="0">
          <mxGeometry x="408" y="-568.44" width="60" height="30" as="geometry" />
        </mxCell>
        <mxCell id="7SjZiJHNHk-_QCqkNeD2-150" value="" style="rounded=0;whiteSpace=wrap;html=1;fillColor=#0050ef;strokeColor=#001DBC;fontColor=#ffffff;" parent="7SjZiJHNHk-_QCqkNeD2-149" vertex="1">
          <mxGeometry y="0.75" width="60" height="26.625" as="geometry" />
        </mxCell>
        <mxCell id="7SjZiJHNHk-_QCqkNeD2-151" value="Con (1*1)" style="text;html=1;strokeColor=#001DBC;fillColor=#0050ef;align=center;verticalAlign=middle;whiteSpace=wrap;rounded=0;fontColor=#ffffff;" parent="7SjZiJHNHk-_QCqkNeD2-149" vertex="1">
          <mxGeometry width="60" height="30" as="geometry" />
        </mxCell>
        <mxCell id="7SjZiJHNHk-_QCqkNeD2-152" value="" style="endArrow=classic;html=1;strokeWidth=2;dashed=1;dashPattern=1 1;" parent="1" edge="1">
          <mxGeometry x="524.5" y="-852.56" width="50" height="50" as="geometry">
            <mxPoint x="679" y="-468.44" as="sourcePoint" />
            <mxPoint x="679" y="-498.44000000000005" as="targetPoint" />
          </mxGeometry>
        </mxCell>
        <mxCell id="7SjZiJHNHk-_QCqkNeD2-153" value="" style="group;fillColor=#0050ef;strokeColor=#001DBC;fontColor=#ffffff;" parent="1" vertex="1" connectable="0" treatAsSingle="0">
          <mxGeometry x="508" y="-598.44" width="60" height="30" as="geometry" />
        </mxCell>
        <mxCell id="7SjZiJHNHk-_QCqkNeD2-154" value="" style="rounded=0;whiteSpace=wrap;html=1;fillColor=#0050ef;strokeColor=#001DBC;fontColor=#ffffff;" parent="7SjZiJHNHk-_QCqkNeD2-153" vertex="1">
          <mxGeometry y="0.75" width="60" height="26.625" as="geometry" />
        </mxCell>
        <mxCell id="7SjZiJHNHk-_QCqkNeD2-155" value="Con (3*3)" style="text;html=1;strokeColor=#001DBC;fillColor=#0050ef;align=center;verticalAlign=middle;whiteSpace=wrap;rounded=0;fontColor=#ffffff;" parent="7SjZiJHNHk-_QCqkNeD2-153" vertex="1">
          <mxGeometry width="60" height="30" as="geometry" />
        </mxCell>
        <mxCell id="7SjZiJHNHk-_QCqkNeD2-156" value="" style="group;fillColor=#0050ef;strokeColor=#001DBC;fontColor=#ffffff;" parent="1" vertex="1" connectable="0" treatAsSingle="0">
          <mxGeometry x="588" y="-598.44" width="60" height="30" as="geometry" />
        </mxCell>
        <mxCell id="7SjZiJHNHk-_QCqkNeD2-157" value="" style="rounded=0;whiteSpace=wrap;html=1;fillColor=#0050ef;strokeColor=#001DBC;fontColor=#ffffff;" parent="7SjZiJHNHk-_QCqkNeD2-156" vertex="1">
          <mxGeometry y="0.75" width="60" height="26.625" as="geometry" />
        </mxCell>
        <mxCell id="7SjZiJHNHk-_QCqkNeD2-158" value="Con (5*5)" style="text;html=1;strokeColor=#001DBC;fillColor=#0050ef;align=center;verticalAlign=middle;whiteSpace=wrap;rounded=0;fontColor=#ffffff;" parent="7SjZiJHNHk-_QCqkNeD2-156" vertex="1">
          <mxGeometry width="60" height="30" as="geometry" />
        </mxCell>
        <mxCell id="7SjZiJHNHk-_QCqkNeD2-159" value="" style="group;fillColor=#0050ef;strokeColor=#001DBC;fontColor=#ffffff;" parent="1" vertex="1" connectable="0" treatAsSingle="0">
          <mxGeometry x="658" y="-598.44" width="60" height="30" as="geometry" />
        </mxCell>
        <mxCell id="7SjZiJHNHk-_QCqkNeD2-160" value="" style="rounded=0;whiteSpace=wrap;html=1;fillColor=#0050ef;strokeColor=#001DBC;fontColor=#ffffff;" parent="7SjZiJHNHk-_QCqkNeD2-159" vertex="1">
          <mxGeometry y="0.75" width="60" height="26.625" as="geometry" />
        </mxCell>
        <mxCell id="7SjZiJHNHk-_QCqkNeD2-161" value="Con (1*1)" style="text;html=1;strokeColor=#001DBC;fillColor=#0050ef;align=center;verticalAlign=middle;whiteSpace=wrap;rounded=0;fontColor=#ffffff;" parent="7SjZiJHNHk-_QCqkNeD2-159" vertex="1">
          <mxGeometry width="60" height="30" as="geometry" />
        </mxCell>
        <mxCell id="7SjZiJHNHk-_QCqkNeD2-162" value="" style="group;fillColor=#60a917;strokeColor=#2D7600;fontColor=#ffffff;" parent="1" vertex="1" connectable="0" treatAsSingle="0">
          <mxGeometry x="568" y="-668.44" width="90" height="30" as="geometry" />
        </mxCell>
        <mxCell id="7SjZiJHNHk-_QCqkNeD2-163" value="" style="rounded=0;whiteSpace=wrap;html=1;fillColor=#60a917;strokeColor=#2D7600;fontColor=#ffffff;" parent="7SjZiJHNHk-_QCqkNeD2-162" vertex="1">
          <mxGeometry y="0.75" width="60" height="26.625" as="geometry" />
        </mxCell>
        <mxCell id="7SjZiJHNHk-_QCqkNeD2-164" value="DepthConcat" style="text;html=1;strokeColor=#2D7600;fillColor=#60a917;align=center;verticalAlign=middle;whiteSpace=wrap;rounded=0;fontColor=#ffffff;" parent="7SjZiJHNHk-_QCqkNeD2-162" vertex="1">
          <mxGeometry x="-20" width="110" height="30" as="geometry" />
        </mxCell>
        <mxCell id="7SjZiJHNHk-_QCqkNeD2-165" value="" style="group;fillColor=#60a917;strokeColor=#2D7600;fontColor=#ffffff;" parent="1" vertex="1" connectable="0" treatAsSingle="0">
          <mxGeometry x="568" y="-738.44" width="90" height="30" as="geometry" />
        </mxCell>
        <mxCell id="7SjZiJHNHk-_QCqkNeD2-166" value="" style="rounded=0;whiteSpace=wrap;html=1;fillColor=#60a917;strokeColor=#2D7600;fontColor=#ffffff;" parent="7SjZiJHNHk-_QCqkNeD2-165" vertex="1">
          <mxGeometry y="0.75" width="60" height="26.625" as="geometry" />
        </mxCell>
        <mxCell id="7SjZiJHNHk-_QCqkNeD2-167" value="DepthConcat" style="text;html=1;strokeColor=#2D7600;fillColor=#60a917;align=center;verticalAlign=middle;whiteSpace=wrap;rounded=0;fontColor=#ffffff;" parent="7SjZiJHNHk-_QCqkNeD2-165" vertex="1">
          <mxGeometry x="-20" width="110" height="30" as="geometry" />
        </mxCell>
        <mxCell id="7SjZiJHNHk-_QCqkNeD2-168" value="" style="shape=image;html=1;verticalAlign=top;verticalLabelPosition=bottom;labelBackgroundColor=#ffffff;imageAspect=0;aspect=fixed;image=https://cdn1.iconfinder.com/data/icons/jumpicon-basic-ui-glyph-1/32/-_Dot-More-Vertical-Menu-128.png;fillColor=none;" parent="1" vertex="1">
          <mxGeometry x="584" y="-708.44" width="40" height="40" as="geometry" />
        </mxCell>
        <mxCell id="7SjZiJHNHk-_QCqkNeD2-170" value="" style="endArrow=classic;html=1;strokeWidth=2;dashed=1;dashPattern=1 1;entryX=0.5;entryY=1;entryDx=0;entryDy=0;" parent="1" target="7SjZiJHNHk-_QCqkNeD2-148" edge="1">
          <mxGeometry x="414.5" y="-842.56" width="50" height="50" as="geometry">
            <mxPoint x="608" y="-468.44" as="sourcePoint" />
            <mxPoint x="613.5" y="-488.44" as="targetPoint" />
          </mxGeometry>
        </mxCell>
        <mxCell id="7SjZiJHNHk-_QCqkNeD2-171" value="" style="endArrow=classic;html=1;strokeWidth=2;dashed=1;dashPattern=1 1;" parent="1" edge="1">
          <mxGeometry x="412.67" y="-922.56" width="50" height="50" as="geometry">
            <mxPoint x="616" y="-529.44" as="sourcePoint" />
            <mxPoint x="616" y="-568.44" as="targetPoint" />
          </mxGeometry>
        </mxCell>
        <mxCell id="7SjZiJHNHk-_QCqkNeD2-172" value="" style="endArrow=classic;html=1;strokeWidth=2;dashed=1;dashPattern=1 1;" parent="1" edge="1">
          <mxGeometry x="498.83000000000004" y="-922.56" width="50" height="50" as="geometry">
            <mxPoint x="688" y="-529.44" as="sourcePoint" />
            <mxPoint x="688" y="-568.44" as="targetPoint" />
          </mxGeometry>
        </mxCell>
        <mxCell id="7SjZiJHNHk-_QCqkNeD2-173" value="" style="endArrow=classic;html=1;strokeWidth=2;dashed=1;dashPattern=1 1;" parent="1" edge="1">
          <mxGeometry x="348.5" y="-921.56" width="50" height="50" as="geometry">
            <mxPoint x="537.67" y="-528.44" as="sourcePoint" />
            <mxPoint x="537.67" y="-567.44" as="targetPoint" />
          </mxGeometry>
        </mxCell>
        <mxCell id="7SjZiJHNHk-_QCqkNeD2-175" value="" style="verticalLabelPosition=bottom;verticalAlign=top;html=1;shape=mxgraph.basic.rect;fillColor2=none;strokeWidth=2;size=20;indent=5;fillColor=none;" parent="1" vertex="1">
          <mxGeometry x="398" y="-748.44" width="331" height="260" as="geometry" />
        </mxCell>
        <mxCell id="7SjZiJHNHk-_QCqkNeD2-196" value="&lt;span style=&quot;font-size: 16px&quot;&gt;&lt;b&gt;&lt;font color=&quot;#000099&quot;&gt;GoogLeNet module&lt;/font&gt;&lt;/b&gt;&lt;/span&gt;" style="text;html=1;strokeColor=none;fillColor=none;align=center;verticalAlign=middle;whiteSpace=wrap;rounded=0;rotation=-90;" parent="1" vertex="1">
          <mxGeometry x="648" y="-638.44" width="180" height="20" as="geometry" />
        </mxCell>
        <mxCell id="7SjZiJHNHk-_QCqkNeD2-199" value="&lt;font color=&quot;#000099&quot;&gt;&lt;span style=&quot;font-size: 16px&quot;&gt;&lt;b&gt;Hybrid module&lt;/b&gt;&lt;/span&gt;&lt;/font&gt;" style="text;html=1;strokeColor=none;fillColor=none;align=center;verticalAlign=middle;whiteSpace=wrap;rounded=0;rotation=-90;" parent="1" vertex="1">
          <mxGeometry x="671.75" y="-997.44" width="132.5" height="20" as="geometry" />
        </mxCell>
        <mxCell id="7SjZiJHNHk-_QCqkNeD2-221" value="" style="rounded=1;whiteSpace=wrap;html=1;strokeWidth=1;fillColor=none;" parent="1" vertex="1">
          <mxGeometry x="408" y="-1036.44" width="50" height="30" as="geometry" />
        </mxCell>
        <mxCell id="7SjZiJHNHk-_QCqkNeD2-223" value="" style="shape=image;html=1;verticalAlign=top;verticalLabelPosition=bottom;labelBackgroundColor=#ffffff;imageAspect=0;aspect=fixed;image=https://cdn4.iconfinder.com/data/icons/essential-app-2/16/record-round-circle-dot-128.png;strokeWidth=2;fillColor=none;" parent="1" vertex="1">
          <mxGeometry x="422" y="-1031.44" width="20" height="20" as="geometry" />
        </mxCell>
        <mxCell id="7SjZiJHNHk-_QCqkNeD2-224" value="&lt;font style=&quot;font-size: 16px&quot;&gt;Sigmoid function&lt;/font&gt;" style="text;html=1;strokeColor=none;fillColor=none;align=center;verticalAlign=middle;whiteSpace=wrap;rounded=0;" parent="1" vertex="1">
          <mxGeometry x="276.5" y="-1031.44" width="140" height="20" as="geometry" />
        </mxCell>
        <mxCell id="7SjZiJHNHk-_QCqkNeD2-213" value="" style="rounded=1;whiteSpace=wrap;html=1;strokeWidth=1;fillColor=none;" parent="1" vertex="1">
          <mxGeometry x="276.5" y="-978.44" width="297.5" height="30" as="geometry" />
        </mxCell>
        <mxCell id="7SjZiJHNHk-_QCqkNeD2-214" value="" style="shape=image;html=1;verticalAlign=top;verticalLabelPosition=bottom;labelBackgroundColor=#ffffff;imageAspect=0;aspect=fixed;image=https://cdn4.iconfinder.com/data/icons/essential-app-2/16/record-round-circle-dot-128.png;strokeWidth=2;fillColor=none;" parent="1" vertex="1">
          <mxGeometry x="287" y="-972.44" width="20" height="20" as="geometry" />
        </mxCell>
        <mxCell id="7SjZiJHNHk-_QCqkNeD2-215" value="" style="shape=image;html=1;verticalAlign=top;verticalLabelPosition=bottom;labelBackgroundColor=#ffffff;imageAspect=0;aspect=fixed;image=https://cdn4.iconfinder.com/data/icons/essential-app-2/16/record-round-circle-dot-128.png;strokeWidth=2;fillColor=none;" parent="1" vertex="1">
          <mxGeometry x="317.5" y="-972.44" width="20" height="20" as="geometry" />
        </mxCell>
        <mxCell id="7SjZiJHNHk-_QCqkNeD2-216" value="" style="shape=image;html=1;verticalAlign=top;verticalLabelPosition=bottom;labelBackgroundColor=#ffffff;imageAspect=0;aspect=fixed;image=https://cdn4.iconfinder.com/data/icons/essential-app-2/16/record-round-circle-dot-128.png;strokeWidth=2;fillColor=none;" parent="1" vertex="1">
          <mxGeometry x="345" y="-972.44" width="20" height="20" as="geometry" />
        </mxCell>
        <mxCell id="7SjZiJHNHk-_QCqkNeD2-217" value="" style="shape=image;html=1;verticalAlign=top;verticalLabelPosition=bottom;labelBackgroundColor=#ffffff;imageAspect=0;aspect=fixed;image=https://cdn4.iconfinder.com/data/icons/essential-app-1/16/dot-more-menu-hide-128.png;strokeWidth=1;fillColor=none;" parent="1" vertex="1">
          <mxGeometry x="370" y="-976.44" width="28" height="28" as="geometry" />
        </mxCell>
        <mxCell id="7SjZiJHNHk-_QCqkNeD2-219" value="" style="shape=image;html=1;verticalAlign=top;verticalLabelPosition=bottom;labelBackgroundColor=#ffffff;imageAspect=0;aspect=fixed;image=https://cdn4.iconfinder.com/data/icons/essential-app-2/16/record-round-circle-dot-128.png;strokeWidth=2;fillColor=none;" parent="1" vertex="1">
          <mxGeometry x="518" y="-972.44" width="20" height="20" as="geometry" />
        </mxCell>
        <mxCell id="7SjZiJHNHk-_QCqkNeD2-220" value="" style="shape=image;html=1;verticalAlign=top;verticalLabelPosition=bottom;labelBackgroundColor=#ffffff;imageAspect=0;aspect=fixed;image=https://cdn4.iconfinder.com/data/icons/essential-app-2/16/record-round-circle-dot-128.png;strokeWidth=2;fillColor=none;" parent="1" vertex="1">
          <mxGeometry x="545" y="-972.44" width="20" height="20" as="geometry" />
        </mxCell>
        <mxCell id="7SjZiJHNHk-_QCqkNeD2-232" value="" style="line;strokeWidth=2;direction=south;html=1;fillColor=none;" parent="1" vertex="1">
          <mxGeometry x="427" y="-1056.44" width="10" height="20" as="geometry" />
        </mxCell>
        <mxCell id="7SjZiJHNHk-_QCqkNeD2-235" value="" style="endArrow=classic;startArrow=classic;html=1;strokeWidth=2;" parent="1" edge="1">
          <mxGeometry width="50" height="50" relative="1" as="geometry">
            <mxPoint x="362" y="-1056.44" as="sourcePoint" />
            <mxPoint x="502" y="-1056.44" as="targetPoint" />
          </mxGeometry>
        </mxCell>
        <mxCell id="7SjZiJHNHk-_QCqkNeD2-237" value="" style="shape=image;imageAspect=0;aspect=fixed;verticalLabelPosition=bottom;verticalAlign=top;strokeWidth=1;fillColor=none;image=data:image/jpeg,iVBORw0KGgoAAAANSUhEUgAAAOEAAACRCAYAAAA1kd+7AAAS40lEQVR42uzdB4wUVRgHcE5EPJoNBBRByIjSJCBNjQWIBiWiJmAJIBA9QREjio3YYkMsxGBBTdSY2CAkFtSoEREsICAKKBpLQPEQ4aSdHk14/lc+8LLM7Mzs++97b9d3yS/GaL65ve/7b5l587aOUsrzPIu0C3ie50PoeUVNu4BtQRAUSj04Fk6DS+FGeBzegq/hN6iEOTAS6hOO6aWjPT8u0C5gm2YTD4OO0B+Gw+3wPMyFlbABdoBKYBn0DgiD5fkQFpU8GtcVHoTP4WfYDLszQSLI1OsSEIbL8yEsGimbNh62EsKWy5fQMCAMmOdDWBRSNGwSIWBJXREQBszzISwKCZs1gBCsNGYEhAHzfAiLQsJmvUsIVhqLoDwgDJnnQ+i8BI3qCTWEYKVRCS0DwpB5PoTOS9CoiwmhSms3dAgIQ+b5EDovQaMuIYQqH6cHhCHzfAidl6BRZxMClY8+AWHIPB9C5yVoVEfYRAhVGkuhUUAYMs+H0HkJGnUU/EYIVho74KSAMGSeD6HzYprUBF4ihCofUwPCkHk+hM7L0aC6MJMQpnwtCAhD5vkQOi9Hg+4hBElHFbQLCIPm+RA6LbQ5e342EIKkq0dAGDTPh9BpEc0ZQwgQg79MUWCKMEO2aRewLaI5EwkBYjgtIAya50PotIjm9IYtEoS18BRcSwhV2ssUXQPCoHk+hE6LbNCen5PhKPn3drCREK6kVkKzgDBong+h01I0rAw+IYQrqXkBYcg8H0LnpWzao4RwJTU+IAyZ50PovJRN6wbbCAGLs+nf7RIJQ+aIurJvTjN5e98W2kNnWZ7XHU6A1tAUGsiWkWWEY/sQui6Pxr1KCFmcJwLCgBlST8JzCgyBcXA3TJMVR3Nhhay/XQ9/yJPMZqiGGrFFrs2uk/93JXwKL8MDcDVcAJ0yxyT83j6Ersijcd2hihC0KKvg6IAwYGRN4EQ4D66XkM2G7yU4OwiPPZYE9zuYDtdJ+Mt9CItYns0bRRimKEMJgdFRJm8Ju8oNzQ/BB/Cjge0e8/G37Gj+kJzNPtiHsMhoDOuDhAHKNoEQorQOgjbyVm+KvLqtzAw34fHYsAgqoIkPYZHQHOA7CUOzd0+ZiYRAJVFfToKMlLeU8+FPwmNwzU9wEzT2IXQcYaiHw2qNYfkFBhJ+j1xvL4+XDYWflbdu2wlDXiyWwbk+hA4jDHlGC7kJd32K4VgDkwp0EqapbFh8Hyws0Ve6NHbJF/Uc4UPoIMLAZ4exAt6G5VAlp983SUC/gZfkVal5TK0DoNG//4w/7iFyUmIsvAmVxC+pKSWLoZMPoWMIwYtysKw37SwXptvGfNFLcznr+oqcHPlCTsV/Ak/DVdA9IpRt4DPCkP4fVMFZPoQOIYRNi4T0uYSbSe2Ui98XQd2sOuVwq4Wd4YrRZujrQ+gIQoh0lnKN0wjNbOgVUrcDvEEY1FK3DnoqwgzZpl3ANkKY8tGMFJRquCHkLWoZDIO1hGOUsqXQQhHmyCbtArYRApVWI3ifMEC1zYI2Icc6DuYS6peylxVhjmzSLmAbIVRpL5S/RhicML/ChRELrCfDTsIxStVIRZglW7QL2EYIVhqTCQMT53E4JOTYgzJBJdQvRd/CoYowTzZoF7CNEKykehlcAD0/4n7E1vARoX4puk0R5skG7QK2EcKVxIEwmzAoaXwHJ0bckjSDUL/U/AiHK8JMmaZdwDZCwJIYTBiSfKyB0yOeFJ4g1C81IxRhpkzTLmAbIWB7tZR78I7JvsnU8ndabN53wmZ/dxDql5IPFWGmTNMuYBthrWhmkD+WV50/ZeXLT7L8rJssXasmDIjuHqYVEY9htMHPqmnVZP6motrA77kBTlCEuTJJu4BtGp/xxiS4hWkjLHFoMfU1EY9nkIPL3XbCpcGen87yZHY5oW6cCkWYK5O0C9gmQ+jy1odM22FIxGMaCH8RjsGS+V17Zv2O/Qh14zyvCHNlknYB2/II4L2ERtu0Ec6MOoFkaEvHJHaErI3tT6gbZ6EizJVJ2gVsSxnA3iWy8qQSOkY8xssceYx/h3wrVV9C3Thriu3CvXYB21KG8DlCk12xfN/3bOzvFkJ9HVVyD2XTkGV/fWQP0pkFOuFVAycpwmyZol3AthQBbFWCdyXMgcYOPeHskqV9LRL2pAM8VoA9Ty9RhNkyRbuAbSlC2IPQXBdNiXi8jQ0vcdsKo/L4jN4cVhOOX9vNijBbpmgXsC3N2k9Cc120Cwbk+Hq4SsIxEg1+nmeqLyMcO9tdijBbpmgXsC1Fs9uX8K5lX+/7/LW/YYT6cb7KsVlvM3kC7A2tQm5gfo9w/Gz3K8JsmaJdwLakIZTmf0posKum5XjsLxDq53JTxHEnyEma7XLpZAssgNFykqZLgZ4YH1aE2TJFu4BtKd/6XENosMuiLuQfCasI9aMMzOMz+CJ4h3DsMFMVYbZM0S5gW8oQNsw0n9BkV/0MLSMe+whC/TDbZCvHOhauCUZ5ShFmyxTtAqbJja1XwovwoezP8npC0+F7QpNddl+O9bLzCPXDnBJyvPIC7MWT1COKMGumaBcwTT7b1ZM7HGYRGlZq1u3bNGp/Awj1w4zMcZlkkoXF5bcowqyZol3ANvzBz4EVeazw30Jotqvurx0GA/dGvhfzMaAt3ANrCMdKYrQizJYp2gVs23viIeWWD+thQgFWarji9xyvhmcUaG3p8IT7tU40cO1ysCLMlinaBWzL2hH75oQDVg2HF/EtTTqfDcsK9NlwY4qviGtF2jw5auF4P0WYLVO0C9gW0uDz4xYGy39vKicPlhAa76Jcr4YVhPphtkr4GyS5bkv8ktbsu+vbKcJsmaJdwLaIBp8asx6xutYi414WThyYcnvUdcMC72G6WK5ZlicI4zTC8Wr7AeoqwmyZol3AthzN7QgrYkP4382wNYQBcM1nUD/i7/MMoX6S263Gxnz//NHkEzazFGGuTNIuYFvOZ9k9P8tzhvA/Q0vwa6h3QbeIv81FhPppvn9+RI4+PUk4xl6TFGGuTPqHvfuP9aqu4zj+NbheuXKZKHT54YLw4IJwydYMKnPlZCmpw6nT5QrCSTNntFrpwu6G2Q8kM1a4VZsa2toiVvZrIstZaMnAxb0E1i3ighlIdL15TSLw0+ts57Sz777n++vzPOd9vnXYHn8x3t/X937e78u953vO5+NdwFq0iPWcJ4ONhjCyvECbOlHW1nmWbxSoT/x4fDVQO3ajA/oqT94FrEWL2MhsGWg0hJGVchJohqL4tYyr9V4NbuF7Wc6vkeOdQO3QqCxwQF/lybuAtWgRmx3E3eJkLG0II5f8D93e9nraj6TgLt6nWthT9KJaX28gQ2hATnNAX+XJu4C1aBGb9WbZKydkehNPfH9DXmvzs6pfylGgsQj9Ke/xo0Dt0EG5WB5q8PXakXLu/yogQ8fduP3/OoShBbJbZrewLcYmGWnhSYZbon97F9BYhGcy/l1sU6LmQnlABmVEjssr8uM6O8Q9CGQILXVAT+XNu4C1aBFbNV/OavHfzJSPyXdkh7wkL8uo7JXNcnPV2YLdOe/zkuZFObfGe1oM1A5dWaP26TJF5ktf/ER9DRdA9/EOS58Deipv3gWsAQfBtOOMqLGmy4y0Hc8iiwtyj2qtDYPfCmTbJxM9vpbfB95b6CEH9JMF7wLWgIHKQxHOE6x1jsUs4PfWJ9r9RgbeLXNK3uGAfrLgXcAaMCB5uKQAH3t8s0auOTIC1N4h1zdzm1rkQvkp8LqxHzmgl6x4F7AGDEgexhXgd8Mna12kgr857JINslLmpRxDsC2DO5OWOKCXrHgXsAYMSF7WAM3mY0i6ctwQeSB5k0CGV4u3ddoN2+UQ2nkv/L8Ose1Flpsx7ZHxOXwjut4BfWTJu4A1YDjycmbGjw818opcWJXpOqBumoEaH0vcCdRNela6HNBHlrwLWAOGI087gMZr1wl5d1WerwF10zwvM2Wq9EmvfAmom7TCAT1kzbuANWAw8vQo0Hg+Lq/KsxOoWW/oD8pw5AD88PQ+meiAHrLmXcAaMBikcTJBeuUsmSLTZJbMlU1A8/m4NnllNKPzAfOySrz7pwi8C1gDBqddXfImWSK3y9dlqzwn+2RYjsqrckJOyimg+aghzOOgmKz8QrrKISwIYJhaMVVuiO4f/b38owCD1YprCnSab7uOxzt+l0NYEMBgNWOK9MtfgSaytEwqkc8B9Sysl0o5hAUCDFgjV8kw0DxFkNwX9PNAvbw9L2eXQ1gwwJDVszqDW6ysjFU9Yb8eqJm3G6VSDmHBAIOW5gagaYrkkJwjlcgngJp5+qFUyiEsIGDYagn/vAQ0TpEMVr3HS4GaeTkiC8ohLChg4Kw2xs3bIZma3G+ng77R3CSVcggLChi4avOgZ+yK6P053jFDuU8q5RAWGDB0RXvkKEt3ZHxDNW2rTCiHsOCAoav2NNA8RfWTjM+BIA1In1TKISw4YOiSZssxoIGK6sV4N7iCf1QxLPOlUg5hBwAGL6/n64riihpndRwB6lJekEVSKYewQwCDl7QaaKKiq3Wh40NAXcIBebtUyiHsIMDgJX0BaKSi25uyT+gGoLZvrgukUg5hhwEGL+lhoJmK7nW5OGX7jSeA+u34ubxRKuUQdiBg8GJvAJvwXzIiL8iQ7JGd8ivZLoOyP/r7IzIiY8Bu2M1aJ5UaJuW8UfEJ+WK8IVQ5hB0KGL5Yt/wWaKwNslDmyqQGT+FPkhkyN/o375IVskkOZXhg6e60rfujgbgfeI1GfieXxq9bDmEHC/yHL9YlzwLNdTuQJdQrS+Q2+aSskbtlD5AxdFWD1/+I/Bl4nWp/k36ZDHyNvPunCLwLWAuAhYycJluBJlsDZKnnViBjaEsTr3WOrIU+Ox2Se2UW8DUoh7BIAmAhE7YAzXY/kKOet0D3to5FtSpNmCN3ylMtnnN/OPrR+nLpBd57OYRFFAALCV8d3SbjgCypwAtI/W38tBD++bCslwflMfmN7JQfyDpZJZfJTOC9lkNYdAGwkAlfBhr7qEwFstRzC5AztF/OBvKYcUAPWfMuYC0AFjKDO0eWAlnqmSt/B3KGVgN5zDigh6x5F7AWAAuZ8DYZAxr7YSBLI5uBnKEh6kqlBQf0kDXvAtYCYCETumU/0NiHZQaQp56lQM7Yx4E8JhzQQ9a8C1gLgIXM6H+YO4As9UyQXUDO0B869XdDB/SQNe8C1gJgIausAJo6dFCmAXnq+RSQM6/PNzPhgB6y5l3AWgAsZIZPm68F8tRzrhwFcoaOyTwgU64c0EPWvAtYC4CFrOERoKlDr8pFQJ7/yvgRpO8CeXLlgB6y5l3AWgAsZMYXPZ6SCUCmNPNlFMgZuwLIlBsH9JA17wLWAmAha+iR3UBDxz4LZKpnI5Axtkt6gEy5cEAPWfMuYC0AFjLFSqChY2OyCMgkEsnwwM97gEy5cEAPWfMuYC0AFjJFjzwHNHRsu3QDudI8AGSMnZD3AZky54AesuZdwFoALGQOH1fE1gGZ0pwPPXIUG8jhHlhvDugha94FrAXAQtbRLc8ADR07JdcBudL0AxmTNgKZMuWAHrLmXcBaACxkA5fBR2IflvOAXLVMliEgY9JNQK7MOKCHrHkXsBYAC9mEbwPNnPR4hr8fLgfyJR3L+KJSOYQOKGIpABayCbPkL0BD53EFcrw8CeRL2id9QDacA3rImncBawGwkE26GWjmpOOyGMhVyyL4I4vQY9IFZEM5oIeseRewFgAL2YJHgWZO2gJkSnMXkK/aV4BcKAf0kDXvAtYCYCFbME0OAM0cG8vwIk2PbAcyVvsMkA3jgB6y5l3AWgAsZIuWwVdLrwYypVksx4GM1VYC2RAO6CFr3gWsBcBCtuGrQCPHPgjkqeduIGO147IMyObNAT1kzbuAtQBYyDb0Qrt1n8zw4kysWx4HslYbkfcA+cohdEARSwGwkB4/6v0TOI9hIpClkTngg8rVWyZOB/KVQ9jJAmAhPXxanIfbgAzNujajA2a+BWQrh7CTBcBCehjvcZTYZhkPZGjFOmDoqo1abovhgB6y5l3AWgAspKdJbWxLv1HOAF67VafLz4DBq7YcyFYOYacKgIUE9Mh98pq4Ov4ktwKv52OmDAKDl3QvkKscwk4VAAsJWiD3yNPyx+jCxV75nnwgq5OJ2rAQfvYw65OoyiEssgBYyIycKZNzOKGpXdfIv4EBJA9GLYfwP+3dsQkCQRQEUFBMLMJoyjCziWvDAjS6AgQDczsxuMwyBMv4zoEYCXLswPdzE7z078LsRLvHVQRBkDO2FxRwtBXsxSWsCoIgZ66naDDQQrAPl7AqCII0nBuer+0E67uElUEQpGFJV4qJjoK1XcIQDMkEQZCG0Xri95KXhMcGLuE/giBI+1hR/+O+80mdYC2JEJyhbM0DskEQpH39Y/GJ7u/SPehGB9oI5suE4Axlax5gZi6hWWkvgHphRbxUrGMAAAAASUVORK5CYII=;" parent="1" vertex="1">
          <mxGeometry x="480" y="-1084" width="80" height="51.56" as="geometry" />
        </mxCell>
        <mxCell id="7SjZiJHNHk-_QCqkNeD2-238" value="" style="shape=image;imageAspect=0;aspect=fixed;verticalLabelPosition=bottom;verticalAlign=top;strokeWidth=1;fillColor=none;image=data:image/png,iVBORw0KGgoAAAANSUhEUgAAAXgAAAF4CAYAAABeneKmAAAABmJLR0QA/wD/AP+gvaeTAAAACXBIWXMAAC4jAAAuIwF4pT92AAA0q0lEQVR42u2d7XXbSNKFL3T2P/lGIEwEwkQgTATmRCA6AtMRDBWB6QhMRTBUBANFMFAES0awZAT9/uimDMmiSIJV/YX7nKMz3rVVRBeqLxuF6urCGANCUqEoihJA6f5n/eavtwAaY0zr8TrWxpg17wyJcr5Q4ElUAVkUYwAVrHiW7s/7/290opknADNpoS+KYgpgAuDTgc9cA2j3P8aYLe8oCTqfKPAkWPAVRYWfYl7jPBE/hc/GmKXAdY4BrADcnvmrG1ixb2AFv+FdJ17nGAWeeAu2oqhhhbyGvJgf4o9LhNWJ+1rwWp/wU/QbrvKJ6pyjwBO14LIr9AmsoN8GuoyNMaa8YAyN8rU/w4k9KPhEeg5S4IlYMNnV7gRW0Cfws0I/hV6pGpdz/+H5Wp9g00FeXhaTzOckBZ5cHEQfv3yMgUdjzKTHuFaBx7TBT7FfMdLI2TFMgSe9g8emYFYAriO/1J0xZtxjfFvE8xSyc75eUezJyTFMgSe9AseKe4N4BPBDjDHFmeMbA/hfpMPZi/2cNfjkI67oAnIubpNPg0TEvSdVxNc2AnAH4L9FUcwYkeQQFHjShznSEvfnjO/Ft6IoFgxJ8h4UeHIWLnVxl9hltz1+Z53Q+L4URTFhdJJf5itz8OSsgLGblf5J7LJ/65OrLopijfhfIO/ZAShZR0+6cAVPzqVK7Hq/X/AicpnQOEewpaqEvECBJ+eyTehan4wxswt+fwG7Mk6FKcOTdKHAk3NZJ3Kd340x9SUGXLqjRjoiXzE8SRfm4HO/wTZnXsG23N3iwq6GkdeH7xt5LSTrw13N/wLh+umczLn1/iTz+U+Bz/Cm2jr1OQ73g9nBiuC8p/0Vwmzhf4L7koJ9klgD2Prq2eK+LCewX5gVIiwVpcCTVzFLgc/oZtrV9cz9nCI+zwDqcysvPFTS7Ffia0R+eIbzRYmfPe1LhKu8ebo0LUUy0wQKfCY30jb8muN8cXk2xlQ9Pm8B4IvApXf7o7c5bL3vnEpVw2/v+6/GmAVnA3mJRQp84jdQJj983ydd00Pkd/jZ+3xQJxy5+1R3fqQFn3Xw5Ne4o8AneuPsKnEOmVV0b3FwKYoZDufkn2AFfcX+5q/8VsHm8ycAbgRM/tm3y6R7ZzOB/eIZu/976+7bkl8aCccZBT5JcahhN+FI5novOr+0k5bYs6Wgn+y7Ej8PSenz8rrvgSZj2Ke/j1pPXPRCngSOLQp8UkIwhhV2jQqW7xduCiJy93gC+1R0bGW/ATDtk+rq0cv/GcCMB4cnFk8U+GQm/gRW3LVe1rECI757XuJnWWbZ+as1Ljj448KDxL/D9qHf8g4lEEMU+Ogn+RhyufaPoMAPJ6aWuKwj6AbAhCm4+GGrgrgnYgVbQvjFw8dxsg6HyYW/fw3g36Io5nRl3FDgI8Wd1PMv/G2aaen1QcRVDbk0319FUTQulUQihAIf3wQcu1YA3zx+7P6MT5I/Y2F7twBaHjgSJxT4iOikZHz3eVnwpdlgGCvYHAH4m0cHxgcFPhJcq4EG/vuYPLHGeVCsFW1/cSmbMd0cBxT4CHArnx/w353wETwFaGi0yvZvAazd0ygJDAU+IC7f3sBPlUyXDezW9glTM8PC3e8n5Y8ZAWjcUykJCAU+EK7yoIHfQyR2sI3Fyr6bZEgWzD18xgjAD+blw8KNTiGcbh9fG/hNyTzBbmtf8w4Qgc1O5/AA2+ZgS897vs8UeO8TawLdlgNv2cEK+4reJ29icQl/It/rcBlyGUzR+J1QFYC/4U/cH2DbAK/offIWY8wUwL2nj7uBzctX9Lw/uIL36eyiWMNPGWTvLoNkkHFZwT5V3nj4uB3sSr6l5/XhCt7fJJrCj7g/Aqgo7uRUjDGtO7bRx2p+X2Ezoef1ocD7Qzugd2DpI7kAt+HtD9gnQE32O1+n9LouTNH4cnRRbKHYyx2skCFysTrG8ZOepLjoJDHyMVzB+0NL3O+NMTXFnUhhjNm6F7B/wj4ZavLDdU4lCnAF78vRRSHt6B3soQsNvUsU47aE7TSq/QL2qzFmQY/LwhW8PyTzmk+w5Y8N3Uo0Mcas3QvY78of9Y0llPJQ4P3RCNnZp2S2dCnxhTuQ/TN0UzYzeloWpmh8OdqepPPPBSa4I5XEEMcVbMpGpeTXGFPQy3JwBe8Jl0557Pnr+23eK3qSBI7jFkDlYlIcpmlkocD7ZdpjYjyCO/9IRLgqmwq2FYY0Y3pYDgq854kBoMbpIn/PjUsk4nieQn73K2NdEObgQzne7uKb4/1c5gOAOWvbSUKx/EPCFnPwwveGAh98cpQAyk6AN/QKSTCOp7hc5B+NMRN6U/C+UOCJ0oSvcDyfus393cLbL/APWKf+xCYg8n9wgSPLf+gC0nMyj2GrKSpYAdv/9/pMO/s/bgCsOz8NgDb29w8H/DBGj52fHV88w+aiG/ffNgXhM8Ys3Rj6iPwDxV0hPrmCJycFil2J1p2fa08fvQHQwopdE3rF755Malgh9+kHwAp/1xfrSGNlivNEnqc9ad0LCjz5YKLWsG2OJ/ArZB+xg91os/K1L8D1Lp/Av6AfY+N8sYwt1eViZ4XjTfZ4XqvmfaDAnxywY9g69ileP35vYFdUWVS9uBXqfpyjBC75AQpi7wRqCivsKfhhB3sqUzRi7+bMzPnw5s21NgAWTMso3wMK/EmBOsFpB2V/dz07Uhvf2E3CGfwc26bBXuAWfb9oO1/iM8S1Uj+XDWw/9yVXxsOGAn980k9xXj7xCbaNb/QTq7PCmiGNVeqpPOKM1aF7vzDN0A/7dBb3VAwUCvzHE7+CfZQ8d9I/uF1+sY5rDLvJaoq8BO0tT7Di1hzxw5cBhDM3zw0QCvwhx9jJ36L/o3p0Nb0Zr9iP8UroB+wHgC81BwUF/pBjimIF4NMFJp6MMXVE45nC5mWHJmhdHuFSFkg7x34pO7CB3SCgwL/nFHtG5DcBU/8XeqXk8stLALe8s6TDBkCV2krexXPlfgD7lN0y9XTAXxT4XwKoQr+8+3sETdMURTEH8BfvKjlA1O+K3sRyDfvkdWih8uH7lqFCgf81kFrIlQoGEXiu2skZBH/KPCGeFzj9RTgP7+7AfvCvA2mOdOvA92OYwD62UtzJKdSRx/MS51U5fXMpVgIKfDeQKsinM1rPY1gA+BvDfpFKzqOKeE7OANz1+NVv7il28FDgf7IUtvfk69G3KIpxURQNhlHPTYbDPKL5nCQUeKilZuaerr2EfSnMlAzJaU5OcNmT6K2zMWgG3w9eKTXjpbe1cMWPBN0+5oBNUW0/+Pe1+28F20s96fcfHXZu7Gv3s8XH6brS/YzxswTQ1z1tI/VhLWBjURRFM+RNXYOvonGpDcnVr5fe1hGI+74jYAPBAyk6/db3Pym8T3h+44u1gB/G+Nl3fgK9L78oq2gE5+W9MWaeQAzp+HHIAi+4oanL79o7BAOK+77/+MpX+WenffEEce0+fYbN8658bLLpdPyc4LId1l2irYMXXnj9NtSNUIMVeDdh1pAVSfUa3EDirtJzvcfYa1ixvwt0CRe3JBaM3Qkua++8g93JGmwcR8a4gFzRQFRtQ7xijBnkj5uoRvCn8XDNFWw+13j42cK+KC4jvHeluzZfvlgDmEYaxzXsF/65Y4pyPJ1xTYXvYdTj1foZ5ArerQT/ETSpvhoS6G55zlgWsKvUbeT3cQzdrpAb2O3vy0Rieo7jaY0d7HkFTQL3di14X3ewi5WoY1qaoZZJzqXteRD3Bvri/gD7RTVPYSIYY7buBVrlrl2KHezLuTIFcXe+aFwa4g/ni82bf/IE4CusyDUp3FvYhYYUI3gqXY6Jwa3ge5zQdAz1/J7brq2Zd97APsJGP/GP+KmGTb1d8kX4CNsvfT00MTjgzylen0u7P4N44aGYYAz5p9ZBvXBNWuBdAFSwecj9n7s0cHXZxphW6cXqb8qr9xnkK326fId9AtlmEdD9T2nawX7JrYYy+Y/4cInj1TrqZxArpFN/WZC5zYLl23+YQ2fK5ATeVZFMcH5t8AZW3CVr3lVrbBWCu0sSudgLfbfCaV/myZyj62l+rXD6qll934fA4Ttv+er+W+P4Xov9E0sDu1BcJ3U/UxB4obIwaTbGmFJ5zC108u5eNmNFEjczHH4J+wybaljm7Icz/dX0mGOq9fRKT96XzJ0lgGUK8ydqgY/87EzVXu8KqxYvkzHiWKpg03h71syz/+KjOfq37VDdA+IhVdlrLiHyg8yjFXh3Q+eIc6v6ozFmojj2CWzbX/GAHKK4k5NibozLV8nai5414jxLN9qDzKMT+EROI1J7sar4OPqZqQjyQdxNcPmiQvWcV+V3Upeyg13NL2K6qKjq4BM5jehe+ZFsDoo78U8lYOMasrXrr3BPB0+R+m8Ee9BI4xZpURCNwLv8X+ynEe00A9jliaUP7fhOcSceuXMrbS1mkY//FkDr5nJwohB4t5Hnrxiu5Qja9eILYXsP2nXKhHiI4xfc5qqHyMd/DaCJQeSDC7yHXZpSbJSrBCYQ7kvPF6rkDNaCtm7cjnEt5gn4c4QIRD6owLsgSEHcfQTVQtDWDjIn4pDh0Ajbm2pdqHsHFvsqHohA5INV0bhB/5tI8GtvappCtj/OH7nuUCWqc7KB7FOk2uE3rtruv4m4VrW66COCrODdW+ZVQrE/T8j+PcWdRBLnE60LTWgVD9ic/DLEB4dK0cwR54aF93jWrEJxufdrwWudg5AeuIXBvaDJWvmSU4r1T8rvJd7Fu8C7R6svSIcbd81azARteQ8gkhdugfCcyOWmFu8L3zXyIVbw8wTjXuWa3ReHVM7zu3Z/bjIYprFfYKdPVUqMfF+zV4F3gpZK1UyXO6VVvNTN3mGAp9UQHdxC4buAqVbxMieIe1PkwTnvcxXvewU/UbS9cUH5J+yxZZ8h+6ipce1TITvRn59KkmMOu3C4hEbx+maCtjawevEbrHbcQy9NNYKuDr7G80npLeRPvG9hD2s49JlLqc8R9sVE6LrWAMZDPDGeP+rz9ZIYXSteVymsH+MDn1O7LylpzWp83UNvK3j3WCJ9WMe9Mab66Jg1t5tTokGR9LVLfYsncfAASQ83rx57/vpU8dJqITs7fHDwTecg8z9x+dNMF2/NFH2maGphe5/PKAkUCTbhMqeJUIAuEtUPkgZTnJ+u+Ky8F0NqHp7Uw9190dUQFHlXHq1OqgJ/f05tuuCmiFLw5kq8IOLqnahijNkaYyqc9tJ1B+BPD91LJVbAuzM1pIWsyNc+7l+KAr/puZlnEdG8kfJFTGMiGeO6kv4Gu1DadP5qB5vG+Qyg/ChdGhmrHj5oIfdyt/YxyP/4+BDh/Pu8Z4C2RVHEElwSN/eZZ4oSn7h4m2YynHVPHyzd2RWX7j6/KYpirP0E7msFXwvaalKOKsEvu2UmE42Q1GiE7NTaF5qawG8yWLVK+WLFeUZIEBohO7X2haYm8A3SpxKwwfQMIeFohOzU2heqLvDC+fcG6SNxU3PwAyFJ4hZXGwFTN9ptC3ys4GtBW00G8VHRD4Qkj9QcrDUvMiWBTz7/7r6tJerfm5T9QEgGSM3BWvMiUxL4BulTCdjYcHMTIcFphOzUmhepWgfP/PsvlAI21pxbJCZcK+0Jfm2/0cLutm5zG7MxZl0UxQaR18Nrr+BrQVtNBnFR0g8kF4qiGBdFsYA9/PobbAuB7s8XAP8WRbHyfZKRJ6TmYq11gakIfA717wAgEeTb/KWDxI4T7AanHb/5CUBbFEWVmRsaITu11gWmIvAN8kAiwNvMJglJkxXOS79eA1hmtpJvhOzUWheoJvDMvxOSJ65tdp+OjjdI7xzVg6RQD6+5gp8I2mo4rV5Y0wUkMPMLfnfGVfy71BoXpynwUhecS/5dBPqChMRVzFxSOTKCp1a5nmiE7Kj4JAWBb0AIiYVSwEaVkT8aITu1xsWpCLzAt7yGAwkhl1PSBT+JPQ+vtYKvBW2tGEaERENJF/xCI2Snlr6w2AX+mdvyCSGRsxKyU0tfWOwC3zB2XlMURT10HxASGY2QHfG5LS7wzL8TQoaEyzI8C5gSz8NrrOBrQVsNw4eQqCgFbKwz9EsjZKeWvKiYBT7H/LtEYNeJ+4CkTRnJPIiNRsjORPKiYhb4BvkhEdjjDP1C0oHx9z6NkJ1a8qJEBZ75dy9UdAEJiER/qTY3pwjm4a+djoogvYKvBW01GU4OiTFVGfqFJIBUu9+MS58bITu11AXFKvC51r9LjGkk+Q1PyBlUAjaeMvZPI2SnlrqgWAW+QYYIHl1WJ+wGki6VgI1txv5pYpvfYgLP/PvJSOTp6tSdQJJEIu7aXJ0TYx5ecgVfC9pqMp4k68h8TchRBA/wyXluS45PZI7HKPC595+RCIDrDM+3JHEzEbLTZu6nRshOLWEkRoFvkDdSAT7N3E8kLiTm92YAzQObiPwtI/DMv5+OMUZqfJPMJwqJC4l4y3puu/m9RUR5eKkVfC3oo+yDADKlYtfsLEl84A7ZHnFuex/nxfM7NoEfSv/3lZCd6UAmDAnLJLK4j51GyE59qYHYBF7KMUMJgLvMTqgnkeHSBJ8ETA3p8B6p+V1fauBigWf+/XzchqeNkLnZQCYNCYNUfC2H4rCY8vASK/ha0DfNgCbOSmoCchVPNHBxNY0s3lOhEbJTX/LLEgI/ERrI0M5fXQrZGYGreKLDDDIvV5+NMeuB+a4RslNf8ssxreClHJIELk3zLGSOq3giiounmZC5xQBd2AjZqS/55YsE3u2mHAkNRMohKbEUsjMCMB+g/4geM6G5vcPw0jPR5OEvXcHXgj5pBjiJloK2vrB9AZHACcpfQuZWA0u9dmmE7NR9fzEWgX8aYhC4MT8ImlwMdCIRWRaR2kqNRshO3fcXYxF4KUcMfTLdFkUxG7AvyYUURTGBTN07YBdu7VB9aYxZCZmq+/5ib4Fn/l0sCFrInnIz54lPpOecHkN2wTGnV8XakvSa05es4GspDwg24EoVyYkwwoA2lRBRFpDbtPjEeQ0gcJomBoHP+YzGk3ATQdIPTNWQs3CpmTtBk3N6FQAFftD5d80J8Y1VNeQU3OP/UtAkV++O0O3Bewk88+9qgSD9NLPiBihySpwIzmeAq/e3SMzrUZ8FW98VfC01cn7Tv2IqbO8aA9xkQk6nKIoFZM5a3fPAOf0LUv6oz/2F0AI/+Px7F9ev47uw2Vs3iQl5hTvI44ugyR24en+PRshOfe4vhBZ4qYHnxNxNFEm+uMlMCICXNOtC2OxigE3FjiL4RFOf+wtnCzzz7+rBsIXOSU0/eMQfcXO4dHNPMu/+bIyZ07sHCZKH77OCr6VGzFzdQb+soJO+WrGyZti4l+4ryIo7wOMjj9EI2anP+cchBZ759+MTRjpVMwLQUOQHTQPZl6oAcD/klgRn+F2C+px/HFLgpQacJS6XOVcwPQLLJwdJURRLyIs7UzOnzedGyFR9zj8+S+CZf/ceFAsAjwqmr2FX8mN6eRg4cb8TNrsDUzPn4D0Pf+4KvpYaKfPvJzOFfKoGsCs5ivwAUBJ3AJgzNXMWjZCd+tR/GErgmX8/EVdVM1EyT5HPHEVxf3BPmOR0GiE79an/MJTASw10ELinnXsl8xT5TFEU92fwoPe+81iC+tR/eLLAM/8ePDjm0MnHAxT57FAU9x2A6YCP4bsUr3n4c1bwtdQIE86/z4qiWAQ8UGMKmYN83+MGQMsSyvRRFHfAinsbaFx1URSrxG9PI2SnPuUfhRD4lPPvI9jeHf8timLle2doZ5frTukj9tU1VeKTaLAoi/tXwWPozhnTtCiKNYB/IHecYCgaITv1Kf/oHIH/FNkAzw2SubDJTwD+KYqi8Sn0bvWk+XncDJUgRVGMlcXd+0tVt2JfA/gBuZOm9kxCxLjvPPxJAi8sYA08UhRFVRRFC+AvpY+4hRX6pa8cthP5z4ofsRf5KUj0uLhroCfuj8aYqcfxlEVRNLAr9mulj7kB8K/Cwu8UvOXhT13B11Ij85l/dwLVQH733nvcAVj7OirPGLME8FXxI0awDcq8TWzSK8bHyjH+DI+bmdz8aWEXTj74y32Z+ETq8+pj/8C3wGtVgbwXKBVsO9QR/DGCPSrPSysA98j8oPwxP9hPPk5cjLfQFffaR8WMSzGtAHzzPGcBe2bC0uPnNUJ26lNE4ugPACP0Mzvl8y79ATAGsBa87j4/LYDK03iXHsazAjD2MR7+nHTPKwBbxfu99nW/3VhCz1cDWyHk6/5J3Lvtsc85uoJPNP++hF7u7lT2teWV9ge5/Kj2Sv4T+PI1Clza7F/orXR3ACaeVu6V04XQ8xUAFh73gjQCNo7m4U9J0dRSQeOjftZ9IcVSSuWtIsWJ/LPyx+y/tCaR+HdQdCplfih+zA42LeNjrlaQP3jk0vm68PRZjZCd+qO/9CnwUgM6hq8bdE7Q+Fr51tAX+RGAvwNVHwyWzilMd4ofM2Rx33Pnaa42gnP+IKcI/G1kA/ooaKbwUzFzLnuRH2t+iHukrqEv8oCtPmBfeQ+4p9JWObZ9inuJOMV9z0L7A5yfJTYs1h/95dUJgSVF4+HGzCOepyPYF5XagbOFP5FnXl4Z96T0D3TF0Ke4j6FzZKAkt57akTQCNkYf6fSxFXwtFUDaweMGGcOLmmOBM9P+EGPM1hhTQf/FK8C8vFY878sG/1L+qGfYaq/W09DmiPMp+73r1KYRslMf+gtfAi81kI+YJTJ3576alXmqrgGYlxelk5/WLhbY17mvPY2rhu3llAJ3HtKPjZCd+tBfHBP4JPLvTjBTaUI0gsdUkkeRB5iXl4jlKfzsvva2ianDHGkxU56bLWTy8Ad1+uqDQKsFx9Io34hJYoFz57PlsBP5754+jnn5nrgdwz+gn59+hGdxd3riq/2AFFMPn9EI+vcXPlrB10ID8FH/LnkjnmDF8Al6bXkBzyklY8wMug3KujAvf97kHLt+KD7SFw/GmEmAAzvmyvafYZ9UHwFshGxee4jhRshOfWjiH9pK20Boi7vylt8ScluV63fsT6GzjXobaIv7FH63f8/ZWiBoy4HuzyLgGLXGtARQKurXMhHfNO/aT73/DOxKWKR3zJHPmSsE52QAosI+NnF82U4DjnOhMJ72vQVZ5zPrVBZiUnPx5F40A82/Lz76S3cm6u+QrS+vEYDOoSE7Tx/JvPzr+eWj5cCeHYA/XXvpUEjH+YMxpvqo9bj7O6m+69rztBGKq1+u80r5hvjIv0u8uNmcMgE6wigl8tqBc2wsJfwdoci8PLy1HNizr5RZBRzvGLIVQZ/POHxknsg8bbSu85DAV5Fd+KHgkXL8yYEgvFM06IYPtyGqhr8Km0HXy7svt9bTfd9XyrSBh10J2ro/50nEreIl5mmt7KNGy9faK/gGukhc5+7cx1cn8hMIpDhiSFt0Kmx8pWwGVy/vvtT+hp8t+veBKmW05igAPLk06bksBT5btbxTsy/N1TuBWAoG4Uo5eCoBG03Pm7IWGt84gkm4PwKwhlyJ2TEGkZf32HIA+Jlvn0fkAqn47jumRuLDPcSpxHX+0h/+vRW81EA2HrZAl4Edu4xoIl2MW0lU8He0YtZ5+c6Rej52WQfPtx+gErCx6XuWs+DquFT2k9R9e+Xv9wS+FvqgBvrcBL7OrcDnS/lbBJeXnwC49/SRWeblOy0HfDTAiyXfrsWl42oErqFSHmMjZOfVdWqu4FWDTeqR6ZJJkfGE2peF/gnm5fvE5gJ+Wg4AceXbtWgD/z6gLPAu2yGeh39P4FM54ENCCHz0TPcxDq2gW8Ffb3kg8by8y7e38NNyIMZ8+3vE0H+mTWSeNgI2XmU1rt4EaCkoDq2yM2oBG+sIgq+KeXZ2av+Zl/8A96W0hp8SyH0P91XkPhlHcikS89zHF1Ur5Pd6/+e3K/hK6EJ9bZ6JwaGXrm6r8G74mE5e/qunj0wqL+8OcfkXflIyD/DYw/1C6hjmaUKp1EbITrn/g5bAN9CnjOSmbC/8/VEqKQljzALAH2BeHsCrlgPfPH3kV2PMNKF8ex3JHJO636Xy/GqETFX7P1wp3ZDWg78lnN1EMlYpv6vjgrDCwPPynlsO7AD84b5gU0IqriXmmERWofTgM4l59TJXrpQGsE4sEEMHX53SgF16oIa/k6Kiyst7bjmwz7c3KcWI+wKU8M8m8wqht6wFbFT7P7wVeJGa3ZzLB99BYqyfUisPdHn5KQaWl/fcciClfPtbphHNr5SQGO9on0666gRuLXSBqbxgFcl5CX6ZTZEgLm3wOzLPy3tuOQCkl2/Ximep+dUgDaSuswRer+BLIcNrT46I6XxHiRLCWaITudt6OMu8vOeWA6nm27v+mkJuB+8qoqH5iLe15LWmLPAx0QjYuPZwsIAaLmVTIbO8vOeWA0nm299hLmRnF1m6d+xhHq2FTJXAa4GvhAzHdEN8sYpsYgTD5eV9tR5Wzct7bjmQcr6967Mp8ly9+0SskqYr8GOhi0s6QPvgJqXETblNeRXf8ccSflsPi+blPbccANLPt7/4DbKLlNUQ9OMd1gI2SuC1wIvktBOqoJF+GbwUsrPIIUI7rYd9vXTf5+XLS4x4bjmQfL79DTPIrd53sbdiUKQVsHENHD7RqS8bDBepYLxxW9+TJ8CRgDcA2r5PQZ5bDuSSb9/7roJshdEqTU+IsBa6J+WV+0Md04WdyKVfJmPJi3FpGqmGXHPtbdE+8Xwk4AjAP+d8SQZoOZBFvr3rP8gffrMQtlcL2PB1v6Q+p7yK9MJ8fJbGI7hUUI6Q2Qqmk5f3VUr5rSiK5bG8vOeWA0Am+fZ34l5yPj1FmupdJ/Y5LwJfJ+aAKHGP21Jpqhu3qszJPy38th6+wwd5ec8tB3LLt+99OIX8l2NWcd9jnqyFTImv4LdDvjGOuaCtOzeBcgpe30cCvpuX99xyIKt8e8eHFeRTKRv3tCdNmZh7JdKZ473AV0IX1Xp0wFYoQEVxwSn5svlHjodSez4S8CUvH6DlQFb59s7cKWFTW9JfkHOlS5ao7tl6dHErYKPaC/w4wRiTcIDWuGfC9papHmP3EQGOBPwGm0b85Onzcsy371+qriAv7k8aq3ep/REpNlEUTdEk+Ahaaxh1wiVZ/z0CkMWB1AcmTQ1/LQ58pGSyzLd3WELnvcVc6XqrBH3cCNh4ycHH1LjLqwMUr28mbO8a9oXhOAOBeEWA1sOaZJlv3+Ne/Gs8AT0o+qwSsJFMl9wO15Ir+BQ3OVVaht3KVHqDzw0y2el6wGcL+D0SUJos8+17lCpm4O73TPHSywTdLRJDkgLfehaDRsDMjfKGojnkv/juXBOsLAlwJKAUWebb97gX/T+UzGv7rRaw0Xh2+VrCSLIC75AQz1rr4lzQThRMf8mtfPKN39aeWw9fQu759n212VLJ/KNmzxmX0pR4X7BO8d5dCeZ0mwDX3wrYmGpeoEvVaNR8/8ixsuaN76awLQ5iJet8O/AikA10Xk5voH+S2UTITpvi/buCXB56G+D6JSbWrXbfF1fzrbF7sxmAyC/h90jAU8k63w6oi/sOwMRDSmsqca0BSiRF4kosRROoRrQRsjP3cK1TyOeVR7A18uN0ZKN3bJWIJy+fdb69wwJ6bRxm2prhFj8SFYJNgJhfS9i5QsK4AJFY2d1pH7ThxKCG/Ep0f3TdOOV7eYr/XF7+e8DLyD7fvseVQ2o1YPus1I7gLVL3qUn1PiYt8I6VkJ259oVS5EV8OIO/1sNdngGUOefb9yiL+4MPcXdVP1L7e1YB7kEpYGZ3hfQbhElNuFsfB224p46pgukhifwSfo8EfDDGVANIyWiL+6N7ca49hjHkqn42gd6zlAI22iupPFhAYVlBbjU39zEOVxamUR0yJJFv4edIwM8+RCkGlMX9GfoVMy/zGHIvhpeBbkcpYWSfopFYCVWBJvoWco9QI1831K1CNeq8hyTymkcC7gD87ilXHBxlcd/BVhxtPYyjhuxh6aHufylgo9kL/FrAWBUwPheCtj75as/rVoYa5ZODEXnnxxlkWw/v8+3tEPyXkbiPISvIjwHLYCsJI5IvWacBJ3gL2Ud1n6WHU+iU/w1N5FeQaT08mHw7oC7ugG1D0HoazhIyfd/3LALemlrAxnov8BI34CbwQdFzQVvezkTttDPQqAoZmsi3uOxIwMHk2wEv4v5Zsw3Bm7FMINvl8ilUxZQbi8Q7hDWMMYBdRRqBn6UxBqF+YCtqjODPzOO1V7AVTUbhpwl5XwLFwvwM/2xhWw4MyT8zpVjzrgWwB/dIz50qdR0zxqArLlKOKQM6phS+0V4nvuAXbXRfvoHiYXJCPCwBjAfml6myuK8SX9gtAt6bWmgMrTEGhTOKoii2Qo8FT66yIdRj5xyy520+ux2Uvq5/Cr22rA9DSkF0fDpxi5h9XG6dKKxy7iUTIL4A+w7Ey0tVN54Z7FGMUuxgF6lerv+d8TSQ2aD13Rgz635zLCH3DTgJvEJpkfA3OnQfnxdDW8nzR3x1eHDVCI9PQ5DNPATXLuF5X71dwdcA/snkW7AC8K+w2T98vnRRXmn56gVCIsHNiQZ6Z9L6XrmP3Xgkm6E9GmMmge5PCfsFKXF/NsaYEuiUSTrxktr67W3D0Hso9WD3eui1E2CtXug/cj4whLwmN3F3LCAr7jsELPWG1Uup+7N4+ZPyy5dZZqmaJvHHtkFXjgw0LTNWmAfB0jKKL4lDpmbmwvP65X7kXm5UKQTCLMA4lhR5/kSyyAkt7qWCRq0C3p9aeCzzrv2XHHzncW6GvN5KS48HsD1KWs/jWEJnU0qIx2uSdswEi5uiKFrIpmY2sIsc7/HvUr5ryKVmftHaX1oVGHuYgWQb1hECNsx345HuOLjyvTvUlTeqNScDyQpXLpybuC8gf8LUNODipoHse5HFL2PxWE61DPgYVCKTxzropWsGtxGKG5nSSMu4MU0UxhJyQ5P0PF6/+zkfXMBKwaHTgA7VCJBZZiI/pUAmL+4V9FpebBFgp7rSAq3N7Au4fu+zfsnBdx6HxpDND+3xWk/+ZkxLhcfWIOMR3PEWzf0hF8fEGHaFfa1gft/2tw0wrhbyJZGhxlJDbr/RHrtr9R0Otgt2uZypwhhXri43BDPIH/O2CtStcQKdNsOroXSfzJAV8hP3BeTz7vNAY6kg36V2gw866X7YD97YVp/SL/ZGCCQi5mdrXvHxBBpLDXmRD/pSnPTDvVTVeKILKe4TyJ7OBNjdqosAYxk7nZDOiHz8kjjgRokWgbr4QWfz0CLQWEro5FwXzGknk3evofdSdZpRXK8R5gWxlobOj3524Bc3ITcYNArjmWT2Yq2mgEYv7mPovVQNWRTR5hLP0CmKaE757JOO7HOPZzOFJ5dP7sVnCCaQP0VpGeL9grs/EwXTzMfHzwo6PWa+m0AN6ZwmSOfd7wMVQywhX9ixO3m+R1KeF6rcsFYYS27lVy1XytGu3mdK83GZWTlzk9F8POtJJJZcUshc31xhLPOAE0RjPMzHxyfuJXRSM23gca2Fx7NFmLy7lriftRg+WAf/wSPHGDr18UCAHi9uTK3wI+HOGDNGIHKq9ycH73ED+aqZYH1Z3JgmAP4WNvun8XTwd2ccFXTaM599ItvVuZ/QKc/ToAlUIz+BbD5+5DY0hGIG+fLJJUgUuNiSFvcdbJHANuDQpOfM9wDiXkJH3J/R4z3oVZ9PcqtsjcMoRrAvKsc+b4qx53JOIw/Wc8azdZ8v+aV17TpzkvAsFWzOQjw9v6EStPV8aHenFoq17r2/fK/6fqJ7w/5dwU83sCv5sc+b477pvyMTlJ605qyqCYs7iUt6t2qwihklTq8ykWUF+eofwL5UXff5xatLPtV9Q2q1sF34vjtuPFKpjW3oKHcrsq+CJkeBJg75yVzY3pPvla4Hpn0FsS/uvZfGTuLPlzxZXQlcwAw6PVHuXB8K30wgk9poYoh0ty1b8kt4npkYJIPC6j3USvcQrYCNEHn3GXR6799f+mR1scB3UgEbhQF+8X04tFA+fhNBPrPLTPD+XLtqB+If6bkQ+qXqW5oLfz9E3n0K+RPjAFsxM7/UiMQKvtvEa6cw0B++K1IEmqzNEREK92ca0/iGgKsuk0wBfI+t7NXNu77ZgJ3vuHT3ZKFg+unccsiD13huHfwJA/5XYcDeO9q5l4kNzn9p8mSMqSMViRnkVhv/F9nqL2uE9zYErXc/Ms4K/TTks88Xxa4csoVOOWQtdW+uJK9MuXzSa1+UTj/8c1Ibz4j4JaTLx0u9L4l2nLnh4l7S37NYv5x7asi9Z3EfQ68cspa8N1fSg3eO/gp5ruG5fNIFWwXg8YR//h0BDiLuM7mF7EwiH2dOTCAnJk++X0L2mHdLAH8AeDryTzewO1Xnni9xCflySHFxB4RTNK8M62yXB3ps1xUaTw27oq86N/cZNo2z8F2WdeFYWqEAZZrGz/1aAfgkZC6plhMuZTPB6z0da9gGYssA17OEjq6p3Bc1gVcIzC73Ab61cxKMKYAfAqY+Z7ZBJsZ7NQbwPyFzz8aYil4NPm+8zaMr6DKFTo38X77LJ3PCBZNERc2E3lRH0scLurMf7gleQ9xV3x+oruCdY8bQO+n998jqzVMK2CUuf9QM2jVzIPdpBZmnYN6r/vegQiTdIc9FewWvXSPfuHIlcj5LARujQN0/h0Qd0f0eHG6BuoRCOaSPd4nqAg+oHinnvXwyF9wLHYndrZO0PREvLi0gJSxLerQXK8hXzDzDU7dZLwIPvAiKRo38jbsJ5HwaARsTulGNSshObK0zkkCpgZjXvvveBB5QbTF8G/Dw7pRZCdi44ROUGnVE93lQuCIOjcOya58l1V4FHlBtMXzHypqz74XUxK/oTRWk/LqkK09HsWLG+6Eq3gV+P1DolE/+CHxUXoo8Ctigz4VxxQMSlWdMz5zn9wo6TzxfQ+wZCSLwSkfK7VmxsuMsGgEbNd0ojlQMNwn7wCuKFTMPrg+Ud0Kt4DVFnpU1/gWgohvFkfJpk7APfLOCQsVMiNYqe4IJPPBSPqkx+GsG9ln34NIv2RG/UMWphOxwHpyAUsWMt3LIQwQVeODlRZ9G98kbVtZ4FYGKbhSlFLCxSakJXigUK2amoZvxBRd4QOXc0D137pAL8jGtgI2KbhRFIlXQpu4EbRQrZiYxvNyOQuABwOWpnhRMf+MZokdpBGyM6UYZBIsEWnrzqJ9XCqY/x9KSORqBd0ygUz65ZGXNh6wFbNR0oxhjITsNXfk+ihUz32NqoR2VwHeOydOorFnyReBBv6/phaiohey0dOVBVpCvmHl0GzmjIbYVvGZjMvas+ZhL02O3WXghI3ja1vsoVsxMYxtrdALvArOBTmOy26IoFgzxd6EYxEMtYOMpdSdooFgxM4nxCzVKgQdeGpNpVNZ8Yc+ad2kFJk9FN5JYcfGpUTFTx5rmjFbgAdXKmh8UIxXGdIEIpYCNhm78SedUJmk+x9zrJ2qBd0ygU1nT8KUrBSFSrukCOYZSMfMe0Qu8cmUNRV4W+jIeWrrgRdwbDKBi5j1SWMGzsiYdKrrgMgTPGN7Sl2riHmXFzHskIfCAemXNcuiTIZadd0Qk/04sC8iLexQ9Zk4lGYEHVCtreBoUyY3tkAdfFMUc8uWQQCQ9Zk4lKYEHXiprNF66LgQfjwkJPU/aoY7dVcz8pWA6mh4zp5KcwDtqABthmyPw7EpCckBjHj/EXjHzHkkKvMt/TSBfWXPLzpOEpItrD57VqUyXkOoKXvM0qAWnCSHp4apm5sJmN0i4U2qyAg+8nAZ1L2z2mi9cCUmSGWQ3M0XbY+ZUkhZ4ADDGzCFfWTPnXOlFTReQgEyF7c1Sf1mdvMDvbwRkK2uu3VFehJAEcE/dki0eom9DcApZCLx7hKohK/JTThtCkmEiaOshhTYEp5DLCr4r8lLlk3fsU0NI/Lj9K5+EzD2kWjHzHtkIPKBSPllz+hASPVLz9CkncQcyE3jgpXxyIWRuwrlDSPRIzNMdMkzLZifwwEtljUSqpubcISR6JObpIsfD57MUeMdSwMY1+9MQEi+u74xE7fsyR/9Q4I9TcRoREi21gI3HHFfvQMYC726YxHmuFecQIdEiMT9XuTon5xW81I2rOYcIiZZSwMYqV+fkLvCtgI0x5xAh0XJ74e9vUu41c4ysBV6oOf9N6n4ghBykzXlwua/gAfmDQQghESDUL6rN2UdDEPi1QCCVnE6EZMk658ENQeC3AjZKzgNCsmSd8+CGIPAtY5iQLCnpgo8ZgsATQvKkpAs+hgJPCCGZQoEnhJBMocATQkimDEHgS95mQrJkSxd8DAX+BIR2xBJCZGkFbJQ5O4gpGkLIkClzHtwQBP52AGMkhPRjnPPguII/zhNdQEiUrAVsVDk7KGuBF2pGRAiJEKFTmMqcfZT7Cl7i5jWcSoREy+7C37/O2TkU+ONsOYcIiZb2UgM5P+nnLvASN65N3AeE5MxawEaZq3O4gj/OlnOIkGhZC9goc3VO7gJ/cX7NGNNyDhESLWsBG3WuzvlPrgMTyqs9sxKHkKhZC9goc3VOtgIvdNNuAPzDOURSoyiKZiBDHQvYyLaShgJPSJ5wB/cZFEVR59hzKuccfM2wJYScSJnjoHIW+CxvGCFEhTLHQeUs8FnvUCOEiFLnOKgsBZ6VL4SQM6lyHFSuK/gsbxYhRI1RURTj3AaVq8CXjFdCyJlUuQ2IK3hCCLFUuQ2IAk8IIZYytwFlJ/AujzZirBJCzqTKbUA5ruCzu0mEEC9kt/s3R4GvGaeEkD4URVHmNJ4cBT6rG0QI8UqZ02CYoiGEkJ/UOQ0mR4G/YYwSQnpS5TSYrNoFF0UhdXOeMcyj+thiNg82kDkIIzVKXN6DqszJIbn1g5e6ORNjzOAmSFEUZoCikCNLY8x8gPE7B/DXhWayygDklqKpJIwMUdwJyYBGwohgJiA4uQl8LWDjifOEkCRZC9mpcnFIbgJfCthoOU8ISQ/35L0TMFXm4pNsBN61KJA45GPNqUJIsrQCNupcnJHTCr6KKEAIIWGQmL9VLs6gwL8hx5PVCRkQrYCNbA7/oMC/5pnzg5CkaYXsVDk4IyeBLwVsrDk/CEkXY0wrZKrOwR85CbzELsw2dScQQkSexMscHJGFwAtuTGg4NwhJnlbARpWDI3JZwZcRBQYhJCwS8ziLlgW5CHwlYGNnjNlybhCSPK2EkRxaFuQi8HUsQUEICY7UXK5SdwRTND9pOC8ISR/3JL4RMFWm7ovkBZ4tCggh79AK2KhTd0IOK/gqooAghMSBxHyuUncCBd4huEGCEBIeifmcfMsCCryFLQoIyYtWyE6VshNyEPgyomAghESA4Klsdcp+yEHgJVoUrFN3AiHkFyROZxun7IDcTnTqS0MXEJIdawEbVcoO+A9jAAAwLYqiphsuZksXREFdFMWcbsjn6L2+UOAtd3SBCC1dEAW3kEldksRhioYQQg6zTvnicxD4pwzGwMlA6EPeD3FyEHhOiHho6YLLcOV9O3oiGpqULz4HgU/6BmTEhruBxVjRBdGQdEznIPArcMUTy30g9GVOPKZ+RkTyAu9uACdEeBZ0gVhMryDT7pYMPKZzqaKZMxaD8iC4NZwwpmPgyRjTpD6IwhiTxd1wGzv+Ylx6ZwegosCrxHSLTM4GTZDfc3inlE0dvDFmDnaFDMGM4q7GFHy/FIL7XAoGslnBAy+nO60BjBijXngwxkzpBtWYngL4QU8wpvuQ1U5W98K1Blc9nAj5xPQSwGd6gjHdh+xaFbhHqxJM12hyT3H3GtNLAH+CCxdNvucY01n2ojHGbI0xFYB7xq0oGwB/uPcdxG9Mr2Bb17I1h3xM/2mMmeU4uKybjTkh+g3AA+P4InawX5ZVDqVjCcfz2hhTw6ZsWCcvF9OrXAeZ1UvWDwdaFCWAifthK9XTJsAKQONSBCS+mK47MX1NjxxlA9vaZJWzqL+KkaEI/DuTowQPBDhEm/oW7YHGdE0vMKa7/D9fE/PLMLklrQAAABJ0RVh0RVhJRjpPcmllbnRhdGlvbgAxhFjs7wAAAABJRU5ErkJggg==;" parent="1" vertex="1">
          <mxGeometry x="315" y="-1081.94" width="44.5" height="44.5" as="geometry" />
        </mxCell>
        <mxCell id="7SjZiJHNHk-_QCqkNeD2-176" value="" style="verticalLabelPosition=bottom;verticalAlign=top;html=1;shape=mxgraph.basic.rect;fillColor2=none;strokeWidth=1;size=20;indent=5;fillColor=none;" parent="1" vertex="1">
          <mxGeometry x="138" y="-838.44" width="590" height="60" as="geometry" />
        </mxCell>
        <mxCell id="7SjZiJHNHk-_QCqkNeD2-177" value="" style="rounded=1;whiteSpace=wrap;html=1;strokeWidth=1;fillColor=none;" parent="1" vertex="1">
          <mxGeometry x="158" y="-823.44" width="220" height="30" as="geometry" />
        </mxCell>
        <mxCell id="7SjZiJHNHk-_QCqkNeD2-178" value="" style="rounded=1;whiteSpace=wrap;html=1;strokeWidth=1;fillColor=none;" parent="1" vertex="1">
          <mxGeometry x="458" y="-823.44" width="220" height="30" as="geometry" />
        </mxCell>
        <mxCell id="7SjZiJHNHk-_QCqkNeD2-179" value="" style="shape=image;html=1;verticalAlign=top;verticalLabelPosition=bottom;labelBackgroundColor=#ffffff;imageAspect=0;aspect=fixed;image=https://cdn4.iconfinder.com/data/icons/essential-app-2/16/record-round-circle-dot-128.png;strokeWidth=2;fillColor=none;" parent="1" vertex="1">
          <mxGeometry x="165" y="-818.44" width="20" height="20" as="geometry" />
        </mxCell>
        <mxCell id="7SjZiJHNHk-_QCqkNeD2-180" value="" style="shape=image;html=1;verticalAlign=top;verticalLabelPosition=bottom;labelBackgroundColor=#ffffff;imageAspect=0;aspect=fixed;image=https://cdn4.iconfinder.com/data/icons/essential-app-2/16/record-round-circle-dot-128.png;strokeWidth=2;fillColor=none;" parent="1" vertex="1">
          <mxGeometry x="194" y="-818.44" width="20" height="20" as="geometry" />
        </mxCell>
        <mxCell id="7SjZiJHNHk-_QCqkNeD2-181" value="" style="shape=image;html=1;verticalAlign=top;verticalLabelPosition=bottom;labelBackgroundColor=#ffffff;imageAspect=0;aspect=fixed;image=https://cdn4.iconfinder.com/data/icons/essential-app-2/16/record-round-circle-dot-128.png;strokeWidth=2;fillColor=none;" parent="1" vertex="1">
          <mxGeometry x="224" y="-818.44" width="20" height="20" as="geometry" />
        </mxCell>
        <mxCell id="7SjZiJHNHk-_QCqkNeD2-184" value="" style="shape=image;html=1;verticalAlign=top;verticalLabelPosition=bottom;labelBackgroundColor=#ffffff;imageAspect=0;aspect=fixed;image=https://cdn4.iconfinder.com/data/icons/essential-app-2/16/record-round-circle-dot-128.png;strokeWidth=2;fillColor=none;" parent="1" vertex="1">
          <mxGeometry x="317.5" y="-818.44" width="20" height="20" as="geometry" />
        </mxCell>
        <mxCell id="7SjZiJHNHk-_QCqkNeD2-185" value="" style="shape=image;html=1;verticalAlign=top;verticalLabelPosition=bottom;labelBackgroundColor=#ffffff;imageAspect=0;aspect=fixed;image=https://cdn4.iconfinder.com/data/icons/essential-app-2/16/record-round-circle-dot-128.png;strokeWidth=2;fillColor=none;" parent="1" vertex="1">
          <mxGeometry x="345" y="-818.44" width="20" height="20" as="geometry" />
        </mxCell>
        <mxCell id="7SjZiJHNHk-_QCqkNeD2-186" value="" style="shape=image;html=1;verticalAlign=top;verticalLabelPosition=bottom;labelBackgroundColor=#ffffff;imageAspect=0;aspect=fixed;image=https://cdn4.iconfinder.com/data/icons/essential-app-2/16/record-round-circle-dot-128.png;strokeWidth=2;fillColor=none;" parent="1" vertex="1">
          <mxGeometry x="468" y="-818.44" width="20" height="20" as="geometry" />
        </mxCell>
        <mxCell id="7SjZiJHNHk-_QCqkNeD2-187" value="" style="shape=image;html=1;verticalAlign=top;verticalLabelPosition=bottom;labelBackgroundColor=#ffffff;imageAspect=0;aspect=fixed;image=https://cdn4.iconfinder.com/data/icons/essential-app-2/16/record-round-circle-dot-128.png;strokeWidth=2;fillColor=none;" parent="1" vertex="1">
          <mxGeometry x="498" y="-818.44" width="20" height="20" as="geometry" />
        </mxCell>
        <mxCell id="7SjZiJHNHk-_QCqkNeD2-188" value="" style="shape=image;html=1;verticalAlign=top;verticalLabelPosition=bottom;labelBackgroundColor=#ffffff;imageAspect=0;aspect=fixed;image=https://cdn4.iconfinder.com/data/icons/essential-app-2/16/record-round-circle-dot-128.png;strokeWidth=2;fillColor=none;" parent="1" vertex="1">
          <mxGeometry x="528" y="-818.44" width="20" height="20" as="geometry" />
        </mxCell>
        <mxCell id="7SjZiJHNHk-_QCqkNeD2-191" value="" style="shape=image;html=1;verticalAlign=top;verticalLabelPosition=bottom;labelBackgroundColor=#ffffff;imageAspect=0;aspect=fixed;image=https://cdn4.iconfinder.com/data/icons/essential-app-2/16/record-round-circle-dot-128.png;strokeWidth=2;fillColor=none;" parent="1" vertex="1">
          <mxGeometry x="623.05" y="-818.44" width="20" height="20" as="geometry" />
        </mxCell>
        <mxCell id="7SjZiJHNHk-_QCqkNeD2-192" value="" style="shape=image;html=1;verticalAlign=top;verticalLabelPosition=bottom;labelBackgroundColor=#ffffff;imageAspect=0;aspect=fixed;image=https://cdn4.iconfinder.com/data/icons/essential-app-2/16/record-round-circle-dot-128.png;strokeWidth=2;fillColor=none;" parent="1" vertex="1">
          <mxGeometry x="648" y="-818.44" width="20" height="20" as="geometry" />
        </mxCell>
        <mxCell id="7SjZiJHNHk-_QCqkNeD2-194" value="" style="shape=image;html=1;verticalAlign=top;verticalLabelPosition=bottom;labelBackgroundColor=#ffffff;imageAspect=0;aspect=fixed;image=https://cdn4.iconfinder.com/data/icons/essential-app-1/16/dot-more-menu-hide-128.png;strokeWidth=1;fillColor=none;" parent="1" vertex="1">
          <mxGeometry x="249" y="-823.44" width="28" height="28" as="geometry" />
        </mxCell>
        <mxCell id="7SjZiJHNHk-_QCqkNeD2-195" value="" style="shape=image;html=1;verticalAlign=top;verticalLabelPosition=bottom;labelBackgroundColor=#ffffff;imageAspect=0;aspect=fixed;image=https://cdn4.iconfinder.com/data/icons/essential-app-1/16/dot-more-menu-hide-128.png;strokeWidth=1;fillColor=none;" parent="1" vertex="1">
          <mxGeometry x="554" y="-823.44" width="28" height="28" as="geometry" />
        </mxCell>
        <mxCell id="7SjZiJHNHk-_QCqkNeD2-197" value="&lt;font color=&quot;#000099&quot;&gt;&lt;span style=&quot;font-size: 16px&quot;&gt;&lt;b&gt;FC layers&lt;/b&gt;&lt;/span&gt;&lt;/font&gt;" style="text;html=1;strokeColor=none;fillColor=none;align=center;verticalAlign=middle;whiteSpace=wrap;rounded=0;rotation=-90;" parent="1" vertex="1">
          <mxGeometry x="693" y="-823.44" width="90" height="20" as="geometry" />
        </mxCell>
        <mxCell id="7SjZiJHNHk-_QCqkNeD2-239" value="" style="endArrow=classic;html=1;strokeWidth=2;" parent="1" edge="1">
          <mxGeometry x="138" y="-858.44" width="50" height="50" as="geometry">
            <mxPoint x="249" y="-838.44" as="sourcePoint" />
            <mxPoint x="249" y="-878.44" as="targetPoint" />
          </mxGeometry>
        </mxCell>
        <mxCell id="7SjZiJHNHk-_QCqkNeD2-241" value="" style="endArrow=classic;html=1;strokeWidth=2;" parent="1" edge="1">
          <mxGeometry x="293" y="-818.44" width="50" height="50" as="geometry">
            <mxPoint x="574" y="-838.44" as="sourcePoint" />
            <mxPoint x="574" y="-878.44" as="targetPoint" />
          </mxGeometry>
        </mxCell>
        <mxCell id="7SjZiJHNHk-_QCqkNeD2-242" value="" style="endArrow=classic;html=1;strokeWidth=2;" parent="1" edge="1">
          <mxGeometry x="138" y="-758.44" width="50" height="50" as="geometry">
            <mxPoint x="249" y="-748.44" as="sourcePoint" />
            <mxPoint x="249" y="-778.44" as="targetPoint" />
          </mxGeometry>
        </mxCell>
        <mxCell id="7SjZiJHNHk-_QCqkNeD2-243" value="" style="endArrow=classic;html=1;strokeWidth=2;" parent="1" edge="1">
          <mxGeometry x="463" y="-758.44" width="50" height="50" as="geometry">
            <mxPoint x="574" y="-748.44" as="sourcePoint" />
            <mxPoint x="574" y="-778.44" as="targetPoint" />
          </mxGeometry>
        </mxCell>
        <mxCell id="7SjZiJHNHk-_QCqkNeD2-244" value="" style="endArrow=classic;html=1;strokeWidth=2;" parent="1" edge="1">
          <mxGeometry x="150.5" y="-897.44" width="50" height="50" as="geometry">
            <mxPoint x="431.5" y="-917.44" as="sourcePoint" />
            <mxPoint x="432" y="-947.44" as="targetPoint" />
          </mxGeometry>
        </mxCell>
        <mxCell id="7SjZiJHNHk-_QCqkNeD2-245" value="" style="endArrow=classic;html=1;strokeWidth=2;" parent="1" edge="1">
          <mxGeometry x="150.5" y="-957.44" width="50" height="50" as="geometry">
            <mxPoint x="431.5" y="-977.44" as="sourcePoint" />
            <mxPoint x="432" y="-1007.44" as="targetPoint" />
          </mxGeometry>
        </mxCell>
        <mxCell id="7SjZiJHNHk-_QCqkNeD2-247" value="&lt;span style=&quot;font-size: 16px&quot;&gt;Benign&lt;/span&gt;" style="text;html=1;strokeColor=none;fillColor=none;align=center;verticalAlign=middle;whiteSpace=wrap;rounded=0;" parent="1" vertex="1">
          <mxGeometry x="244" y="-1070.22" width="73" height="20" as="geometry" />
        </mxCell>
        <mxCell id="7SjZiJHNHk-_QCqkNeD2-248" value="&lt;span style=&quot;font-size: 16px&quot;&gt;Theft&lt;/span&gt;" style="text;html=1;strokeColor=none;fillColor=none;align=center;verticalAlign=middle;whiteSpace=wrap;rounded=0;" parent="1" vertex="1">
          <mxGeometry x="538" y="-1070.22" width="60" height="20" as="geometry" />
        </mxCell>
        <mxCell id="7SjZiJHNHk-_QCqkNeD2-200" value="" style="rounded=1;whiteSpace=wrap;html=1;strokeWidth=1;fillColor=none;" parent="1" vertex="1">
          <mxGeometry x="158" y="-917.44" width="550" height="37.5" as="geometry" />
        </mxCell>
        <mxCell id="7SjZiJHNHk-_QCqkNeD2-201" value="" style="shape=image;html=1;verticalAlign=top;verticalLabelPosition=bottom;labelBackgroundColor=#ffffff;imageAspect=0;aspect=fixed;image=https://cdn4.iconfinder.com/data/icons/essential-app-2/16/record-round-circle-dot-128.png;strokeWidth=2;fillColor=none;" parent="1" vertex="1">
          <mxGeometry x="161" y="-911.19" width="20" height="20" as="geometry" />
        </mxCell>
        <mxCell id="7SjZiJHNHk-_QCqkNeD2-202" value="" style="shape=image;html=1;verticalAlign=top;verticalLabelPosition=bottom;labelBackgroundColor=#ffffff;imageAspect=0;aspect=fixed;image=https://cdn4.iconfinder.com/data/icons/essential-app-2/16/record-round-circle-dot-128.png;strokeWidth=2;fillColor=none;" parent="1" vertex="1">
          <mxGeometry x="185" y="-911.19" width="20" height="20" as="geometry" />
        </mxCell>
        <mxCell id="7SjZiJHNHk-_QCqkNeD2-207" value="" style="shape=image;html=1;verticalAlign=top;verticalLabelPosition=bottom;labelBackgroundColor=#ffffff;imageAspect=0;aspect=fixed;image=https://cdn4.iconfinder.com/data/icons/essential-app-2/16/record-round-circle-dot-128.png;strokeWidth=2;fillColor=none;" parent="1" vertex="1">
          <mxGeometry x="207.5" y="-911.19" width="20" height="20" as="geometry" />
        </mxCell>
        <mxCell id="7SjZiJHNHk-_QCqkNeD2-210" value="" style="shape=image;html=1;verticalAlign=top;verticalLabelPosition=bottom;labelBackgroundColor=#ffffff;imageAspect=0;aspect=fixed;image=https://cdn4.iconfinder.com/data/icons/essential-app-2/16/record-round-circle-dot-128.png;strokeWidth=2;fillColor=none;" parent="1" vertex="1">
          <mxGeometry x="678" y="-911.19" width="20" height="20" as="geometry" />
        </mxCell>
        <mxCell id="7SjZiJHNHk-_QCqkNeD2-211" value="" style="shape=image;html=1;verticalAlign=top;verticalLabelPosition=bottom;labelBackgroundColor=#ffffff;imageAspect=0;aspect=fixed;image=https://cdn4.iconfinder.com/data/icons/essential-app-2/16/record-round-circle-dot-128.png;strokeWidth=2;fillColor=none;" parent="1" vertex="1">
          <mxGeometry x="651.75" y="-911.19" width="20" height="20" as="geometry" />
        </mxCell>
        <mxCell id="7SjZiJHNHk-_QCqkNeD2-212" value="" style="shape=image;html=1;verticalAlign=top;verticalLabelPosition=bottom;labelBackgroundColor=#ffffff;imageAspect=0;aspect=fixed;image=https://cdn4.iconfinder.com/data/icons/essential-app-1/16/dot-more-menu-hide-128.png;strokeWidth=1;fillColor=none;" parent="1" vertex="1">
          <mxGeometry x="235.5" y="-916.19" width="28" height="28" as="geometry" />
        </mxCell>
        <mxCell id="7SjZiJHNHk-_QCqkNeD2-198" value="" style="verticalLabelPosition=bottom;verticalAlign=top;html=1;shape=mxgraph.basic.rect;fillColor2=none;strokeWidth=2;size=20;indent=5;fillColor=none;" parent="1" vertex="1">
          <mxGeometry x="137" y="-1087" width="590" height="210" as="geometry" />
        </mxCell>
        <mxCell id="7SjZiJHNHk-_QCqkNeD2-261" value="" style="endArrow=none;html=1;strokeWidth=2;" parent="1" edge="1">
          <mxGeometry width="50" height="50" relative="1" as="geometry">
            <mxPoint x="391" y="-330" as="sourcePoint" />
            <mxPoint x="391" y="-415" as="targetPoint" />
          </mxGeometry>
        </mxCell>
        <mxCell id="7SjZiJHNHk-_QCqkNeD2-262" value="" style="endArrow=none;html=1;strokeWidth=2;" parent="1" edge="1">
          <mxGeometry width="50" height="50" relative="1" as="geometry">
            <mxPoint x="508" y="-330" as="sourcePoint" />
            <mxPoint x="507.9" y="-414.44" as="targetPoint" />
          </mxGeometry>
        </mxCell>
        <mxCell id="-Suf6a2pRYcpRoqIGUqc-12" value="" style="endArrow=classic;html=1;strokeWidth=1;" edge="1" parent="1">
          <mxGeometry width="50" height="50" relative="1" as="geometry">
            <mxPoint x="459" y="-162" as="sourcePoint" />
            <mxPoint x="459" y="-194" as="targetPoint" />
          </mxGeometry>
        </mxCell>
        <mxCell id="7SjZiJHNHk-_QCqkNeD2-256" value="" style="verticalLabelPosition=bottom;verticalAlign=top;html=1;shape=mxgraph.basic.rect;fillColor2=none;strokeWidth=2;size=20;indent=5;fillColor=#b1ddf0;dashed=1;strokeColor=#10739e;" parent="1" vertex="1">
          <mxGeometry x="350" y="-244" width="220" height="49.14" as="geometry" />
        </mxCell>
        <mxCell id="7SjZiJHNHk-_QCqkNeD2-258" value="&lt;font style=&quot;font-size: 14px&quot;&gt;Solve data imbalance problem through TimeGAN&lt;/font&gt;" style="text;html=1;strokeColor=none;fillColor=none;align=center;verticalAlign=middle;whiteSpace=wrap;rounded=0;dashed=1;" parent="1" vertex="1">
          <mxGeometry x="344.55" y="-233" width="225.45" height="20" as="geometry" />
        </mxCell>
        <mxCell id="-Suf6a2pRYcpRoqIGUqc-18" value="" style="verticalLabelPosition=bottom;verticalAlign=top;html=1;shape=mxgraph.basic.rect;fillColor2=none;strokeWidth=2;size=20;indent=5;fillColor=#b1ddf0;dashed=1;strokeColor=#10739e;" vertex="1" parent="1">
          <mxGeometry x="347.27" y="-329" width="220" height="49.14" as="geometry" />
        </mxCell>
        <mxCell id="-Suf6a2pRYcpRoqIGUqc-19" value="&lt;span style=&quot;font-size: 14px&quot;&gt;Exploratory data analysis&lt;/span&gt;" style="text;html=1;strokeColor=none;fillColor=none;align=center;verticalAlign=middle;whiteSpace=wrap;rounded=0;dashed=1;" vertex="1" parent="1">
          <mxGeometry x="350" y="-316" width="225.45" height="20" as="geometry" />
        </mxCell>
        <mxCell id="-Suf6a2pRYcpRoqIGUqc-21" value="" style="endArrow=classic;html=1;strokeWidth=1;" edge="1" parent="1">
          <mxGeometry width="50" height="50" relative="1" as="geometry">
            <mxPoint x="458" y="-246" as="sourcePoint" />
            <mxPoint x="458.5" y="-278.86" as="targetPoint" />
          </mxGeometry>
        </mxCell>
        <mxCell id="7SjZiJHNHk-_QCqkNeD2-47" value="" style="group" parent="1" vertex="1" connectable="0" treatAsSingle="0">
          <mxGeometry x="575" y="-420.44" width="130" height="55" as="geometry" />
        </mxCell>
        <mxCell id="7SjZiJHNHk-_QCqkNeD2-27" value="" style="group" parent="7SjZiJHNHk-_QCqkNeD2-47" vertex="1" connectable="0" treatAsSingle="0">
          <mxGeometry y="25" width="130" height="30" as="geometry" />
        </mxCell>
        <mxCell id="7SjZiJHNHk-_QCqkNeD2-20" value="" style="rounded=0;whiteSpace=wrap;html=1;" parent="7SjZiJHNHk-_QCqkNeD2-27" vertex="1">
          <mxGeometry width="27.083333333333332" height="30" as="geometry" />
        </mxCell>
        <mxCell id="7SjZiJHNHk-_QCqkNeD2-24" value="" style="rounded=0;whiteSpace=wrap;html=1;" parent="7SjZiJHNHk-_QCqkNeD2-27" vertex="1">
          <mxGeometry x="27.083333333333332" width="27.083333333333332" height="30" as="geometry" />
        </mxCell>
        <mxCell id="7SjZiJHNHk-_QCqkNeD2-25" value="" style="rounded=0;whiteSpace=wrap;html=1;" parent="7SjZiJHNHk-_QCqkNeD2-27" vertex="1">
          <mxGeometry x="75.83333333333333" width="27.083333333333332" height="30" as="geometry" />
        </mxCell>
        <mxCell id="7SjZiJHNHk-_QCqkNeD2-26" value="" style="rounded=0;whiteSpace=wrap;html=1;" parent="7SjZiJHNHk-_QCqkNeD2-27" vertex="1">
          <mxGeometry x="102.91666666666667" width="27.083333333333332" height="30" as="geometry" />
        </mxCell>
        <mxCell id="7SjZiJHNHk-_QCqkNeD2-36" value="" style="shape=image;html=1;verticalAlign=top;verticalLabelPosition=bottom;labelBackgroundColor=#ffffff;imageAspect=0;aspect=fixed;image=https://cdn4.iconfinder.com/data/icons/essential-app-1/16/dot-more-menu-hide-128.png" parent="7SjZiJHNHk-_QCqkNeD2-27" vertex="1">
          <mxGeometry x="57.08" y="7.090000000000003" width="15.83" height="15.83" as="geometry" />
        </mxCell>
        <mxCell id="7SjZiJHNHk-_QCqkNeD2-40" value="&lt;font style=&quot;font-size: 16px&quot;&gt;x&lt;/font&gt;&lt;font style=&quot;font-size: 13.3333px&quot;&gt;&lt;sub&gt;nk&lt;/sub&gt;&lt;/font&gt;" style="text;html=1;strokeColor=none;fillColor=none;align=center;verticalAlign=middle;whiteSpace=wrap;rounded=0;" parent="7SjZiJHNHk-_QCqkNeD2-27" vertex="1">
          <mxGeometry x="-5.4599999999999795" y="4" width="40" height="20" as="geometry" />
        </mxCell>
        <mxCell id="7SjZiJHNHk-_QCqkNeD2-41" value="&lt;font style=&quot;font-size: 16px&quot;&gt;x&lt;sub&gt;nk&lt;/sub&gt;&lt;/font&gt;" style="text;html=1;strokeColor=none;fillColor=none;align=center;verticalAlign=middle;whiteSpace=wrap;rounded=0;" parent="7SjZiJHNHk-_QCqkNeD2-27" vertex="1">
          <mxGeometry x="96.46000000000002" y="5" width="40" height="20" as="geometry" />
        </mxCell>
        <mxCell id="7SjZiJHNHk-_QCqkNeD2-34" value="" style="shape=image;html=1;verticalAlign=top;verticalLabelPosition=bottom;labelBackgroundColor=#ffffff;imageAspect=0;aspect=fixed;image=https://cdn4.iconfinder.com/data/icons/essential-app-1/16/dot-more-menu-hide-128.png;rotation=-90;" parent="7SjZiJHNHk-_QCqkNeD2-47" vertex="1">
          <mxGeometry x="19" width="15.83" height="15.83" as="geometry" />
        </mxCell>
        <mxCell id="7SjZiJHNHk-_QCqkNeD2-35" value="" style="shape=image;html=1;verticalAlign=top;verticalLabelPosition=bottom;labelBackgroundColor=#ffffff;imageAspect=0;aspect=fixed;image=https://cdn4.iconfinder.com/data/icons/essential-app-1/16/dot-more-menu-hide-128.png;rotation=-90;" parent="7SjZiJHNHk-_QCqkNeD2-47" vertex="1">
          <mxGeometry x="93" y="0.08999999999997499" width="15.83" height="15.83" as="geometry" />
        </mxCell>
        <mxCell id="7SjZiJHNHk-_QCqkNeD2-29" value="" style="rounded=0;whiteSpace=wrap;html=1;" parent="1" vertex="1">
          <mxGeometry x="574" y="-458.44" width="27.083333333333332" height="30" as="geometry" />
        </mxCell>
        <mxCell id="7SjZiJHNHk-_QCqkNeD2-30" value="" style="rounded=0;whiteSpace=wrap;html=1;" parent="1" vertex="1">
          <mxGeometry x="601.0833333333334" y="-458.44" width="27.083333333333332" height="30" as="geometry" />
        </mxCell>
        <mxCell id="7SjZiJHNHk-_QCqkNeD2-31" value="" style="rounded=0;whiteSpace=wrap;html=1;" parent="1" vertex="1">
          <mxGeometry x="649.8333333333334" y="-458.44" width="27.083333333333332" height="30" as="geometry" />
        </mxCell>
        <mxCell id="7SjZiJHNHk-_QCqkNeD2-32" value="" style="rounded=0;whiteSpace=wrap;html=1;" parent="1" vertex="1">
          <mxGeometry x="676.9166666666666" y="-458.44" width="27.083333333333332" height="30" as="geometry" />
        </mxCell>
        <mxCell id="7SjZiJHNHk-_QCqkNeD2-33" value="" style="shape=image;html=1;verticalAlign=top;verticalLabelPosition=bottom;labelBackgroundColor=#ffffff;imageAspect=0;aspect=fixed;image=https://cdn4.iconfinder.com/data/icons/essential-app-1/16/dot-more-menu-hide-128.png" parent="1" vertex="1">
          <mxGeometry x="631.17" y="-450.44" width="15.83" height="15.83" as="geometry" />
        </mxCell>
        <mxCell id="7SjZiJHNHk-_QCqkNeD2-38" value="&lt;font style=&quot;font-size: 16px&quot;&gt;x&lt;sub&gt;11&lt;/sub&gt;&lt;/font&gt;" style="text;html=1;strokeColor=none;fillColor=none;align=center;verticalAlign=middle;whiteSpace=wrap;rounded=0;" parent="1" vertex="1">
          <mxGeometry x="567.54" y="-454.61" width="40" height="20" as="geometry" />
        </mxCell>
        <mxCell id="7SjZiJHNHk-_QCqkNeD2-39" value="&lt;font style=&quot;font-size: 16px&quot;&gt;x&lt;sub&gt;1k&lt;/sub&gt;&lt;/font&gt;" style="text;html=1;strokeColor=none;fillColor=none;align=center;verticalAlign=middle;whiteSpace=wrap;rounded=0;" parent="1" vertex="1">
          <mxGeometry x="670.46" y="-453.44" width="40" height="20" as="geometry" />
        </mxCell>
        <mxCell id="7SjZiJHNHk-_QCqkNeD2-45" value="" style="verticalLabelPosition=bottom;verticalAlign=top;html=1;shape=mxgraph.basic.rect;fillColor2=none;strokeWidth=1;size=20;indent=5;strokeColor=#10739e;fillColor=none;" parent="1" vertex="1">
          <mxGeometry x="569.09" y="-466.44" width="140" height="109" as="geometry" />
        </mxCell>
        <mxCell id="-Suf6a2pRYcpRoqIGUqc-22" value="&lt;font style=&quot;font-size: 16px&quot;&gt;2D Weekly data&lt;/font&gt;" style="text;html=1;strokeColor=none;fillColor=none;align=center;verticalAlign=middle;whiteSpace=wrap;rounded=0;" vertex="1" parent="1">
          <mxGeometry x="515.04" y="-356.44" width="121.96" height="22" as="geometry" />
        </mxCell>
        <mxCell id="7SjZiJHNHk-_QCqkNeD2-3" value="" style="group;fillColor=#fad9d5;strokeColor=#ae4132;" parent="1" vertex="1" connectable="0" treatAsSingle="0">
          <mxGeometry x="422" y="-87" width="120" height="70" as="geometry" />
        </mxCell>
        <mxCell id="7SjZiJHNHk-_QCqkNeD2-1" value="" style="strokeWidth=2;html=1;shape=mxgraph.flowchart.database;whiteSpace=wrap;" parent="7SjZiJHNHk-_QCqkNeD2-3" vertex="1">
          <mxGeometry width="120" height="70" as="geometry" />
        </mxCell>
        <mxCell id="7SjZiJHNHk-_QCqkNeD2-2" value="&lt;font style=&quot;font-size: 14px&quot;&gt;SGCC dataset&lt;/font&gt;" style="text;html=1;strokeColor=none;fillColor=none;align=center;verticalAlign=middle;whiteSpace=wrap;rounded=0;" parent="7SjZiJHNHk-_QCqkNeD2-3" vertex="1">
          <mxGeometry x="30" y="35" width="60" height="17.5" as="geometry" />
        </mxCell>
        <mxCell id="-Suf6a2pRYcpRoqIGUqc-15" value="" style="endArrow=classic;html=1;strokeWidth=1;entryX=1;entryY=0.5;entryDx=0;entryDy=0;" edge="1" parent="7SjZiJHNHk-_QCqkNeD2-3">
          <mxGeometry width="50" height="50" relative="1" as="geometry">
            <mxPoint x="-1" y="40" as="sourcePoint" />
            <mxPoint x="-46" y="39.565000000000055" as="targetPoint" />
          </mxGeometry>
        </mxCell>
        <mxCell id="-Suf6a2pRYcpRoqIGUqc-2" value="&lt;font style=&quot;font-size: 14px&quot;&gt;Remove missing value&lt;/font&gt;" style="rounded=1;whiteSpace=wrap;html=1;strokeWidth=2;fillColor=#b1ddf0;strokeColor=#10739e;" vertex="1" parent="1">
          <mxGeometry x="251" y="-67" width="125" height="39.13" as="geometry" />
        </mxCell>
        <mxCell id="-Suf6a2pRYcpRoqIGUqc-3" value="&lt;font style=&quot;font-size: 14px&quot;&gt;Remove outliers&lt;/font&gt;" style="rounded=1;whiteSpace=wrap;html=1;strokeWidth=2;fillColor=#b1ddf0;strokeColor=#10739e;" vertex="1" parent="1">
          <mxGeometry x="404.5" y="-157" width="140" height="39.13" as="geometry" />
        </mxCell>
        <mxCell id="-Suf6a2pRYcpRoqIGUqc-7" value="&lt;font style=&quot;font-size: 14px&quot;&gt;Normalization&lt;/font&gt;" style="rounded=1;whiteSpace=wrap;html=1;strokeWidth=2;fillColor=#b1ddf0;strokeColor=#10739e;" vertex="1" parent="1">
          <mxGeometry x="586" y="-71.57" width="112" height="39.13" as="geometry" />
        </mxCell>
        <mxCell id="-Suf6a2pRYcpRoqIGUqc-13" value="" style="endArrow=classic;html=1;strokeWidth=1;" edge="1" parent="1">
          <mxGeometry x="238.5" y="-167" width="50" height="50" as="geometry">
            <mxPoint x="476" y="-87.87" as="sourcePoint" />
            <mxPoint x="476.5" y="-117.87" as="targetPoint" />
          </mxGeometry>
        </mxCell>
        <mxCell id="-Suf6a2pRYcpRoqIGUqc-14" value="" style="endArrow=classic;html=1;strokeWidth=1;entryX=0.747;entryY=0.688;entryDx=0;entryDy=0;entryPerimeter=0;" edge="1" parent="1">
          <mxGeometry x="238.5" y="-167" width="50" height="50" as="geometry">
            <mxPoint x="542" y="-50" as="sourcePoint" />
            <mxPoint x="584.825" y="-49.92000000000007" as="targetPoint" />
          </mxGeometry>
        </mxCell>
        <mxCell id="-Suf6a2pRYcpRoqIGUqc-10" value="" style="rounded=0;whiteSpace=wrap;html=1;fillColor=none;dashed=1;strokeWidth=2;" vertex="1" parent="1">
          <mxGeometry x="234.09" y="-163" width="475" height="160" as="geometry" />
        </mxCell>
      </root>
    </mxGraphModel>
  </diagram>
</mxfile>
